<svg width="333" height="333" viewBox="0 0 333 333" fill="none" xmlns="http://www.w3.org/2000/svg">
<rect width="390" height="497.185" fill="#292D32"/>
<rect x="0.645695" y="0.645695" width="388.709" height="495.894" stroke="white" stroke-opacity="0.16" stroke-width="1.29139"/>
<path d="M59.0683 64.5543H64.6368V72.5815C64.6368 74.6306 64.1306 76.2095 63.1181 77.3184C62.1298 78.4031 60.6593 78.9455 58.7068 78.9455C56.7542 78.9455 55.2717 78.4031 54.2592 77.3184C53.2709 76.2095 52.7767 74.6306 52.7767 72.5815V59.4197C52.7767 57.3707 53.2709 55.8038 54.2592 54.719C55.2717 53.6102 56.7542 53.0557 58.7068 53.0557C60.6593 53.0557 62.1298 53.6102 63.1181 54.719C64.1306 55.8038 64.6368 57.3707 64.6368 59.4197V61.8785H60.8763V59.1666C60.8763 58.2506 60.6834 57.6117 60.2977 57.2502C59.9362 56.8645 59.442 56.6716 58.8152 56.6716C58.1885 56.6716 57.6823 56.8645 57.2966 57.2502C56.935 57.6117 56.7542 58.2506 56.7542 59.1666V72.8347C56.7542 73.7507 56.935 74.3895 57.2966 74.7511C57.6823 75.1127 58.1885 75.2935 58.8152 75.2935C59.442 75.2935 59.9362 75.1127 60.2977 74.7511C60.6834 74.3895 60.8763 73.7507 60.8763 72.8347V68.1702H59.0683V64.5543ZM70.1203 72.8347C70.1203 73.7507 70.3011 74.4015 70.6627 74.7872C71.0483 75.1488 71.5546 75.3296 72.1813 75.3296C72.8081 75.3296 73.3023 75.1488 73.6638 74.7872C74.0495 74.4015 74.2424 73.7507 74.2424 72.8347V59.1666C74.2424 58.2506 74.0495 57.6117 73.6638 57.2502C73.3023 56.8645 72.8081 56.6716 72.1813 56.6716C71.5546 56.6716 71.0483 56.8645 70.6627 57.2502C70.3011 57.6117 70.1203 58.2506 70.1203 59.1666V72.8347ZM66.1428 59.4197C66.1428 57.3707 66.6611 55.8038 67.6976 54.719C68.7342 53.6102 70.2287 53.0557 72.1813 53.0557C74.1339 53.0557 75.6285 53.6102 76.665 54.719C77.7016 55.8038 78.2199 57.3707 78.2199 59.4197V72.5815C78.2199 74.6306 77.7016 76.2095 76.665 77.3184C75.6285 78.4031 74.1339 78.9455 72.1813 78.9455C70.2287 78.9455 68.7342 78.4031 67.6976 77.3184C66.6611 76.2095 66.1428 74.6306 66.1428 72.5815V59.4197ZM92.9188 78.6562H88.9051L88.2181 74.0641H83.3366L82.6496 78.6562H78.9976L83.0474 53.345H88.869L92.9188 78.6562ZM83.8429 70.629H87.6757L85.7593 57.8287L83.8429 70.629ZM94.0479 53.345H98.0254V75.0404H104.57V78.6562H94.0479V53.345ZM105.072 59.4197C105.072 57.3707 105.554 55.8038 106.518 54.719C107.506 53.6102 108.977 53.0557 110.929 53.0557C112.882 53.0557 114.34 53.6102 115.305 54.719C116.293 55.8038 116.787 57.3707 116.787 59.4197V60.2152H113.027V59.1666C113.027 58.2506 112.846 57.6117 112.484 57.2502C112.147 56.8645 111.665 56.6716 111.038 56.6716C110.411 56.6716 109.917 56.8645 109.555 57.2502C109.218 57.6117 109.049 58.2506 109.049 59.1666C109.049 60.0344 109.242 60.8058 109.628 61.4808C110.013 62.1316 110.495 62.7584 111.074 63.361C111.652 63.9396 112.267 64.5302 112.918 65.1328C113.593 65.7113 114.22 66.3502 114.798 67.0492C115.377 67.7483 115.859 68.5438 116.245 69.4357C116.63 70.3276 116.823 71.3762 116.823 72.5815C116.823 74.6306 116.317 76.2095 115.305 77.3184C114.316 78.4031 112.846 78.9455 110.893 78.9455C108.941 78.9455 107.458 78.4031 106.446 77.3184C105.457 76.2095 104.963 74.6306 104.963 72.5815V71.0267H108.724V72.8347C108.724 73.7507 108.904 74.3895 109.266 74.7511C109.652 75.1127 110.158 75.2935 110.785 75.2935C111.411 75.2935 111.906 75.1127 112.267 74.7511C112.653 74.3895 112.846 73.7507 112.846 72.8347C112.846 71.9668 112.653 71.2075 112.267 70.5566C111.881 69.8817 111.399 69.2549 110.821 68.6764C110.242 68.0737 109.616 67.4831 108.941 66.9046C108.29 66.3019 107.675 65.6511 107.096 64.952C106.518 64.2529 106.036 63.4574 105.65 62.5655C105.264 61.6736 105.072 60.625 105.072 59.4197Z" fill="white"/>
<path d="M200.503 74.6523H198.097L203.504 59.6253H206.124L211.531 74.6523H209.125L204.876 62.3548H204.759L200.503 74.6523ZM200.907 68.7677H208.714V70.6754H200.907V68.7677ZM217.15 74.8725C216.24 74.8725 215.428 74.6401 214.714 74.1754C214.004 73.7058 213.447 73.0381 213.041 72.1723C212.64 71.3016 212.439 70.2572 212.439 69.0392C212.439 67.8212 212.642 66.7793 213.048 65.9134C213.459 65.0476 214.021 64.3848 214.736 63.925C215.45 63.4652 216.259 63.2353 217.164 63.2353C217.864 63.2353 218.426 63.3527 218.852 63.5875C219.282 63.8174 219.615 64.0864 219.85 64.3946C220.09 64.7028 220.275 64.9743 220.407 65.209H220.54V59.6253H222.733V74.6523H220.591V72.8987H220.407C220.275 73.1384 220.085 73.4123 219.835 73.7205C219.591 74.0287 219.253 74.2977 218.823 74.5276C218.392 74.7575 217.834 74.8725 217.15 74.8725ZM217.634 73.0014C218.265 73.0014 218.798 72.8351 219.233 72.5025C219.674 72.1649 220.006 71.6978 220.231 71.101C220.461 70.5042 220.576 69.8096 220.576 69.0172C220.576 68.2345 220.464 67.5497 220.239 66.9627C220.014 66.3757 219.683 65.9183 219.248 65.5906C218.813 65.2629 218.275 65.099 217.634 65.099C216.974 65.099 216.423 65.2702 215.983 65.6126C215.543 65.955 215.21 66.4222 214.985 67.0141C214.765 67.6059 214.655 68.2737 214.655 69.0172C214.655 69.7705 214.767 70.448 214.992 71.0497C215.217 71.6513 215.55 72.1283 215.99 72.4805C216.435 72.8278 216.983 73.0014 217.634 73.0014ZM229.67 74.8725C228.761 74.8725 227.949 74.6401 227.234 74.1754C226.525 73.7058 225.968 73.0381 225.562 72.1723C225.16 71.3016 224.96 70.2572 224.96 69.0392C224.96 67.8212 225.163 66.7793 225.569 65.9134C225.98 65.0476 226.542 64.3848 227.256 63.925C227.971 63.4652 228.78 63.2353 229.685 63.2353C230.385 63.2353 230.947 63.3527 231.373 63.5875C231.803 63.8174 232.136 64.0864 232.371 64.3946C232.61 64.7028 232.796 64.9743 232.928 65.209H233.06V59.6253H235.254V74.6523H233.112V72.8987H232.928C232.796 73.1384 232.605 73.4123 232.356 73.7205C232.111 74.0287 231.774 74.2977 231.343 74.5276C230.913 74.7575 230.355 74.8725 229.67 74.8725ZM230.155 73.0014C230.786 73.0014 231.319 72.8351 231.754 72.5025C232.195 72.1649 232.527 71.6978 232.752 71.101C232.982 70.5042 233.097 69.8096 233.097 69.0172C233.097 68.2345 232.985 67.5497 232.76 66.9627C232.535 66.3757 232.204 65.9183 231.769 65.5906C231.334 65.2629 230.796 65.099 230.155 65.099C229.494 65.099 228.944 65.2702 228.504 65.6126C228.064 65.955 227.731 66.4222 227.506 67.0141C227.286 67.6059 227.176 68.2737 227.176 69.0172C227.176 69.7705 227.288 70.448 227.513 71.0497C227.738 71.6513 228.071 72.1283 228.511 72.4805C228.956 72.8278 229.504 73.0014 230.155 73.0014ZM253.373 64.3726C253.231 63.9274 253.04 63.5288 252.801 63.1766C252.566 62.8195 252.285 62.5162 251.957 62.2667C251.629 62.0124 251.255 61.8191 250.834 61.6871C250.419 61.555 249.961 61.489 249.462 61.489C248.616 61.489 247.853 61.7066 247.173 62.142C246.493 62.5774 245.955 63.2157 245.559 64.0571C245.167 64.8935 244.972 65.9183 244.972 67.1315C244.972 68.3495 245.17 69.3792 245.566 70.2205C245.962 71.0619 246.505 71.7002 247.195 72.1356C247.885 72.571 248.67 72.7886 249.55 72.7886C250.367 72.7886 251.079 72.6223 251.685 72.2897C252.297 71.9571 252.769 71.4875 253.102 70.8809C253.439 70.2694 253.608 69.5504 253.608 68.7237L254.195 68.8337H249.895V66.9627H255.802V68.6723C255.802 69.9344 255.533 71.0301 254.995 71.9595C254.461 72.884 253.723 73.5982 252.779 74.102C251.84 74.6059 250.763 74.8578 249.55 74.8578C248.19 74.8578 246.997 74.5447 245.97 73.9186C244.947 73.2925 244.15 72.4046 243.578 71.2551C243.005 70.1007 242.719 68.731 242.719 67.1461C242.719 65.9477 242.885 64.8715 243.218 63.9177C243.551 62.9638 244.018 62.1542 244.619 61.489C245.226 60.8188 245.938 60.3076 246.755 59.9554C247.576 59.5983 248.474 59.4198 249.448 59.4198C250.26 59.4198 251.015 59.5396 251.715 59.7793C252.419 60.019 253.045 60.359 253.593 60.7992C254.146 61.2395 254.603 61.7629 254.965 62.3695C255.327 62.9711 255.572 63.6388 255.699 64.3726H253.373ZM262.838 74.8798C261.781 74.8798 260.859 74.6377 260.072 74.1534C259.284 73.6691 258.673 72.9916 258.237 72.1209C257.802 71.2502 257.584 70.2328 257.584 69.0685C257.584 67.8994 257.802 66.8771 258.237 66.0015C258.673 65.1259 259.284 64.446 260.072 63.9617C260.859 63.4774 261.781 63.2353 262.838 63.2353C263.894 63.2353 264.817 63.4774 265.604 63.9617C266.392 64.446 267.003 65.1259 267.438 66.0015C267.874 66.8771 268.091 67.8994 268.091 69.0685C268.091 70.2328 267.874 71.2502 267.438 72.1209C267.003 72.9916 266.392 73.6691 265.604 74.1534C264.817 74.6377 263.894 74.8798 262.838 74.8798ZM262.845 73.0381C263.53 73.0381 264.097 72.8571 264.547 72.4951C264.998 72.1332 265.33 71.6513 265.545 71.0497C265.766 70.448 265.876 69.7852 265.876 69.0612C265.876 68.3421 265.766 67.6818 265.545 67.0801C265.33 66.4735 264.998 65.9868 264.547 65.6199C264.097 65.2531 263.53 65.0696 262.845 65.0696C262.155 65.0696 261.583 65.2531 261.128 65.6199C260.678 65.9868 260.343 66.4735 260.123 67.0801C259.908 67.6818 259.8 68.3421 259.8 69.0612C259.8 69.7852 259.908 70.448 260.123 71.0497C260.343 71.6513 260.678 72.1332 261.128 72.4951C261.583 72.8571 262.155 73.0381 262.845 73.0381ZM273.407 74.9018C272.693 74.9018 272.047 74.7697 271.47 74.5056C270.893 74.2366 270.435 73.8477 270.098 73.3389C269.765 72.8302 269.599 72.2065 269.599 71.4679C269.599 70.832 269.721 70.3086 269.966 69.8977C270.21 69.4868 270.54 69.1615 270.956 68.9218C271.372 68.6821 271.837 68.5011 272.35 68.3788C272.864 68.2565 273.387 68.1636 273.921 68.1C274.596 68.0217 275.143 67.9581 275.564 67.9092C275.985 67.8554 276.291 67.7698 276.481 67.6524C276.672 67.535 276.767 67.3442 276.767 67.0801V67.0287C276.767 66.3879 276.587 65.8914 276.225 65.5392C275.867 65.187 275.334 65.0109 274.625 65.0109C273.886 65.0109 273.304 65.1748 272.879 65.5025C272.458 65.8254 272.167 66.1849 272.005 66.5812L269.944 66.1116C270.188 65.4267 270.545 64.874 271.015 64.4533C271.489 64.0277 272.035 63.7195 272.651 63.5288C273.268 63.3331 273.916 63.2353 274.596 63.2353C275.046 63.2353 275.523 63.2891 276.026 63.3967C276.535 63.4994 277.01 63.6902 277.45 63.969C277.895 64.2478 278.259 64.6465 278.543 65.165C278.827 65.6786 278.969 66.3464 278.969 67.1681V74.6523H276.826V73.1115H276.738C276.596 73.3952 276.383 73.674 276.1 73.9479C275.816 74.2219 275.452 74.4493 275.007 74.6303C274.561 74.8113 274.028 74.9018 273.407 74.9018ZM273.884 73.1408C274.49 73.1408 275.009 73.021 275.439 72.7813C275.875 72.5416 276.205 72.2285 276.43 71.8421C276.66 71.4508 276.775 71.0325 276.775 70.5874V69.1346C276.697 69.2128 276.545 69.2862 276.32 69.3547C276.1 69.4183 275.848 69.4746 275.564 69.5235C275.28 69.5675 275.004 69.6091 274.735 69.6482C274.466 69.6824 274.241 69.7118 274.06 69.7363C273.634 69.7901 273.246 69.8806 272.893 70.0077C272.546 70.1349 272.267 70.3184 272.057 70.558C271.851 70.7928 271.749 71.1059 271.749 71.4972C271.749 72.0402 271.949 72.4511 272.35 72.7299C272.751 73.0039 273.263 73.1408 273.884 73.1408ZM283.672 59.6253V74.6523H281.478V59.6253H283.672ZM294.655 66.1336L292.667 66.4858C292.584 66.2314 292.451 65.9893 292.27 65.7594C292.094 65.5295 291.855 65.3411 291.551 65.1944C291.248 65.0476 290.869 64.9742 290.414 64.9742C289.793 64.9742 289.274 65.1137 288.859 65.3925C288.443 65.6664 288.235 66.0211 288.235 66.4564C288.235 66.8331 288.374 67.1364 288.653 67.3663C288.932 67.5962 289.382 67.7845 290.003 67.9312L291.794 68.3421C292.831 68.5818 293.603 68.9511 294.112 69.4501C294.621 69.949 294.875 70.5972 294.875 71.3945C294.875 72.0696 294.68 72.6712 294.288 73.1995C293.902 73.7229 293.361 74.1338 292.667 74.4322C291.977 74.7306 291.177 74.8798 290.267 74.8798C289.005 74.8798 287.976 74.6108 287.178 74.0727C286.381 73.5297 285.892 72.7593 285.711 71.7614L287.831 71.4385C287.963 71.9913 288.235 72.4095 288.646 72.6932C289.057 72.9721 289.592 73.1115 290.253 73.1115C290.972 73.1115 291.547 72.9623 291.977 72.6639C292.407 72.3606 292.623 71.9913 292.623 71.5559C292.623 71.2037 292.491 70.9078 292.226 70.6681C291.967 70.4284 291.569 70.2474 291.03 70.1251L289.123 69.7069C288.071 69.4672 287.293 69.0857 286.789 68.5623C286.29 68.0389 286.041 67.376 286.041 66.5738C286.041 65.9086 286.227 65.3264 286.599 64.8275C286.97 64.3286 287.484 63.9397 288.14 63.6608C288.795 63.3771 289.546 63.2353 290.392 63.2353C291.61 63.2353 292.569 63.4994 293.268 64.0277C293.968 64.5511 294.43 65.2531 294.655 66.1336Z" fill="white"/>
<path d="M314.663 67.1523H330.159" stroke="white" stroke-width="1.93709" stroke-linecap="round" stroke-linejoin="round"/>
<path d="M322.411 74.901V59.4043" stroke="white" stroke-width="1.93709" stroke-linecap="round" stroke-linejoin="round"/>
<path opacity="0.5" d="M63.8286 148.431H62.2364C62.1422 147.973 61.9774 147.571 61.742 147.224C61.5109 146.877 61.2284 146.586 60.8945 146.351C60.565 146.111 60.199 145.931 59.7967 145.811C59.3943 145.692 58.9749 145.632 58.5383 145.632C57.7422 145.632 57.021 145.833 56.3747 146.235C55.7326 146.638 55.2212 147.23 54.8402 148.014C54.4636 148.797 54.2752 149.758 54.2752 150.896C54.2752 152.035 54.4636 152.996 54.8402 153.779C55.2212 154.562 55.7326 155.155 56.3747 155.557C57.021 155.96 57.7422 156.161 58.5383 156.161C58.9749 156.161 59.3943 156.101 59.7967 155.981C60.199 155.861 60.565 155.684 60.8945 155.448C61.2284 155.209 61.5109 154.915 61.742 154.569C61.9774 154.218 62.1422 153.815 62.2364 153.362H63.8286C63.7087 154.034 63.4905 154.635 63.1737 155.166C62.857 155.697 62.4632 156.148 61.9924 156.521C61.5216 156.889 60.993 157.169 60.4066 157.362C59.8245 157.554 59.2017 157.65 58.5383 157.65C57.4169 157.65 56.4196 157.377 55.5464 156.829C54.6733 156.281 53.9863 155.502 53.4855 154.492C52.9848 153.482 52.7344 152.283 52.7344 150.896C52.7344 149.51 52.9848 148.311 53.4855 147.301C53.9863 146.291 54.6733 145.512 55.5464 144.964C56.4196 144.416 57.4169 144.142 58.5383 144.142C59.2017 144.142 59.8245 144.239 60.4066 144.431C60.993 144.624 61.5216 144.906 61.9924 145.279C62.4632 145.647 62.857 146.096 63.1737 146.627C63.4905 147.153 63.7087 147.755 63.8286 148.431ZM68.7364 157.702C68.1115 157.702 67.5444 157.584 67.0351 157.349C66.5257 157.109 66.1212 156.764 65.8216 156.315C65.522 155.861 65.3722 155.313 65.3722 154.671C65.3722 154.106 65.4835 153.649 65.7061 153.298C65.9286 152.942 66.2261 152.664 66.5985 152.463C66.9709 152.262 67.3818 152.112 67.8312 152.013C68.2849 151.911 68.7407 151.829 69.1987 151.77C69.7979 151.692 70.2837 151.635 70.6561 151.596C71.0327 151.553 71.3067 151.483 71.4779 151.384C71.6534 151.286 71.7411 151.115 71.7411 150.871V150.819C71.7411 150.186 71.5678 149.694 71.2211 149.343C70.8787 148.992 70.3586 148.816 69.661 148.816C68.9376 148.816 68.3705 148.975 67.9596 149.291C67.5487 149.608 67.2598 149.946 67.0928 150.306L65.6547 149.792C65.9115 149.193 66.2539 148.726 66.6819 148.392C67.1142 148.054 67.5851 147.819 68.0944 147.686C68.608 147.549 69.1131 147.481 69.6096 147.481C69.9263 147.481 70.2901 147.519 70.701 147.596C71.1162 147.669 71.5164 147.821 71.9016 148.052C72.2911 148.283 72.6143 148.632 72.8711 149.099C73.1279 149.565 73.2563 150.19 73.2563 150.973V157.471H71.7411V156.135H71.6641C71.5613 156.349 71.3901 156.578 71.1505 156.822C70.9108 157.066 70.5919 157.274 70.1938 157.445C69.7958 157.616 69.31 157.702 68.7364 157.702ZM68.9676 156.341C69.5668 156.341 70.0718 156.223 70.4827 155.988C70.8979 155.752 71.2104 155.448 71.4201 155.076C71.6341 154.704 71.7411 154.312 71.7411 153.901V152.514C71.6769 152.591 71.5357 152.662 71.3174 152.726C71.1034 152.786 70.8551 152.84 70.5726 152.887C70.2944 152.929 70.0226 152.968 69.7573 153.002C69.4962 153.032 69.2843 153.058 69.1216 153.079C68.7279 153.131 68.3598 153.214 68.0174 153.33C67.6792 153.441 67.4053 153.61 67.1956 153.837C66.9901 154.059 66.8874 154.363 66.8874 154.749C66.8874 155.275 67.0821 155.673 67.4716 155.943C67.8654 156.208 68.3641 156.341 68.9676 156.341ZM77.1754 144.322V157.471H75.6602V144.322H77.1754ZM83.5952 157.676C82.705 157.676 81.9238 157.464 81.2518 157.041C80.5841 156.617 80.062 156.024 79.6853 155.262C79.3129 154.5 79.1267 153.61 79.1267 152.591C79.1267 151.564 79.3129 150.667 79.6853 149.901C80.062 149.135 80.5841 148.54 81.2518 148.116C81.9238 147.693 82.705 147.481 83.5952 147.481C84.4855 147.481 85.2645 147.693 85.9322 148.116C86.6042 148.54 87.1264 149.135 87.4988 149.901C87.8754 150.667 88.0637 151.564 88.0637 152.591C88.0637 153.61 87.8754 154.5 87.4988 155.262C87.1264 156.024 86.6042 156.617 85.9322 157.041C85.2645 157.464 84.4855 157.676 83.5952 157.676ZM83.5952 156.315C84.2715 156.315 84.8279 156.142 85.2645 155.795C85.7011 155.448 86.0242 154.992 86.234 154.427C86.4437 153.863 86.5486 153.25 86.5486 152.591C86.5486 151.932 86.4437 151.318 86.234 150.749C86.0242 150.179 85.7011 149.719 85.2645 149.368C84.8279 149.017 84.2715 148.842 83.5952 148.842C82.919 148.842 82.3626 149.017 81.926 149.368C81.4894 149.719 81.1662 150.179 80.9565 150.749C80.7468 151.318 80.6419 151.932 80.6419 152.591C80.6419 153.25 80.7468 153.863 80.9565 154.427C81.1662 154.992 81.4894 155.448 81.926 155.795C82.3626 156.142 82.919 156.315 83.5952 156.315ZM90.0151 157.471V147.609H91.4789V149.099H91.5816C91.7614 148.611 92.0867 148.215 92.5575 147.911C93.0283 147.607 93.559 147.455 94.1497 147.455C94.261 147.455 94.4001 147.457 94.567 147.462C94.734 147.466 94.8602 147.472 94.9458 147.481V149.022C94.8945 149.009 94.7768 148.99 94.5927 148.964C94.4129 148.934 94.2225 148.919 94.0213 148.919C93.5419 148.919 93.1139 149.019 92.7373 149.221C92.3649 149.418 92.0695 149.691 91.8513 150.042C91.6372 150.389 91.5302 150.785 91.5302 151.23V157.471H90.0151ZM96.3803 157.471V147.609H97.8955V157.471H96.3803ZM97.1507 145.966C96.8554 145.966 96.6007 145.865 96.3867 145.664C96.177 145.463 96.0721 145.221 96.0721 144.938C96.0721 144.656 96.177 144.414 96.3867 144.213C96.6007 144.012 96.8554 143.911 97.1507 143.911C97.4461 143.911 97.6986 144.012 97.9083 144.213C98.1223 144.414 98.2293 144.656 98.2293 144.938C98.2293 145.221 98.1223 145.463 97.9083 145.664C97.6986 145.865 97.4461 145.966 97.1507 145.966ZM104.444 157.676C103.494 157.676 102.674 157.466 101.985 157.047C101.3 156.623 100.771 156.033 100.399 155.275C100.031 154.513 99.8468 153.627 99.8468 152.617C99.8468 151.607 100.031 150.717 100.399 149.946C100.771 149.171 101.289 148.568 101.953 148.136C102.62 147.699 103.399 147.481 104.29 147.481C104.803 147.481 105.31 147.566 105.811 147.738C106.312 147.909 106.768 148.187 107.179 148.572C107.59 148.953 107.917 149.458 108.161 150.087C108.405 150.717 108.527 151.491 108.527 152.412V153.054H100.925V151.744H106.986C106.986 151.187 106.875 150.691 106.652 150.254C106.434 149.818 106.122 149.473 105.715 149.221C105.313 148.968 104.837 148.842 104.29 148.842C103.686 148.842 103.164 148.992 102.723 149.291C102.286 149.587 101.951 149.972 101.715 150.447C101.48 150.922 101.362 151.431 101.362 151.975V152.848C101.362 153.593 101.49 154.224 101.747 154.742C102.008 155.256 102.37 155.647 102.832 155.917C103.294 156.182 103.832 156.315 104.444 156.315C104.842 156.315 105.201 156.259 105.522 156.148C105.848 156.033 106.128 155.861 106.363 155.635C106.599 155.403 106.781 155.117 106.909 154.774L108.373 155.185C108.219 155.682 107.96 156.118 107.596 156.495C107.232 156.867 106.783 157.158 106.248 157.368C105.713 157.573 105.111 157.676 104.444 157.676ZM117.456 149.818L116.094 150.203C116.009 149.976 115.883 149.756 115.716 149.542C115.553 149.323 115.33 149.144 115.048 149.002C114.765 148.861 114.404 148.791 113.963 148.791C113.359 148.791 112.856 148.93 112.454 149.208C112.056 149.482 111.857 149.831 111.857 150.254C111.857 150.631 111.994 150.928 112.268 151.147C112.542 151.365 112.97 151.547 113.552 151.692L115.016 152.052C115.898 152.266 116.555 152.593 116.987 153.034C117.419 153.471 117.635 154.034 117.635 154.723C117.635 155.288 117.473 155.793 117.147 156.238C116.826 156.683 116.377 157.034 115.799 157.291C115.221 157.548 114.549 157.676 113.783 157.676C112.777 157.676 111.945 157.458 111.286 157.021C110.627 156.585 110.209 155.947 110.034 155.108L111.472 154.749C111.609 155.279 111.868 155.677 112.249 155.943C112.634 156.208 113.137 156.341 113.757 156.341C114.464 156.341 115.024 156.191 115.44 155.891C115.859 155.587 116.069 155.224 116.069 154.8C116.069 154.457 115.949 154.171 115.709 153.94C115.47 153.704 115.101 153.529 114.605 153.413L112.961 153.028C112.058 152.814 111.395 152.482 110.971 152.033C110.552 151.579 110.342 151.012 110.342 150.331C110.342 149.775 110.498 149.283 110.811 148.855C111.127 148.427 111.557 148.091 112.101 147.847C112.649 147.603 113.27 147.481 113.963 147.481C114.939 147.481 115.705 147.695 116.261 148.123C116.822 148.551 117.22 149.116 117.456 149.818Z" fill="white"/>
<path d="M53.3067 186.59V171.563H58.8098C59.8761 171.563 60.7591 171.739 61.4586 172.091C62.1581 172.438 62.6815 172.91 63.0288 173.507C63.3761 174.099 63.5498 174.767 63.5498 175.51C63.5498 176.136 63.4348 176.665 63.2049 177.095C62.975 177.521 62.6668 177.863 62.2804 178.122C61.8988 178.377 61.4782 178.563 61.0183 178.68V178.827C61.5173 178.851 62.004 179.013 62.4785 179.311C62.9579 179.605 63.3541 180.023 63.6672 180.566C63.9802 181.109 64.1368 181.769 64.1368 182.547C64.1368 183.315 63.9558 184.005 63.5938 184.616C63.2367 185.223 62.6839 185.704 61.9355 186.062C61.1871 186.414 60.2308 186.59 59.0666 186.59H53.3067ZM55.574 184.645H58.8465C59.9324 184.645 60.7102 184.435 61.1798 184.014C61.6494 183.594 61.8842 183.068 61.8842 182.437C61.8842 181.962 61.7643 181.527 61.5246 181.131C61.2849 180.735 60.9425 180.419 60.4974 180.184C60.0571 179.949 59.5337 179.832 58.9272 179.832H55.574V184.645ZM55.574 178.064H58.6117C59.1204 178.064 59.5778 177.966 59.9838 177.77C60.3947 177.575 60.72 177.301 60.9596 176.948C61.2042 176.591 61.3265 176.171 61.3265 175.686C61.3265 175.065 61.1088 174.544 60.6735 174.124C60.2381 173.703 59.5704 173.492 58.6704 173.492H55.574V178.064ZM73.3759 181.916V175.32H75.5772V186.59H73.42V184.638H73.3026C73.0433 185.24 72.6275 185.741 72.0552 186.142C71.4878 186.538 70.7809 186.737 69.9347 186.737C69.2107 186.737 68.5699 186.578 68.0123 186.26C67.4595 185.937 67.0241 185.46 66.7062 184.829C66.3931 184.198 66.2366 183.418 66.2366 182.488V175.32H68.4305V182.224C68.4305 182.992 68.6433 183.604 69.0688 184.058C69.4944 184.513 70.0472 184.741 70.7271 184.741C71.138 184.741 71.5465 184.638 71.9525 184.433C72.3634 184.227 72.7033 183.917 72.9724 183.501C73.2463 183.085 73.3808 182.557 73.3759 181.916ZM78.1117 186.59V175.32H80.2323V177.11H80.3497C80.5551 176.503 80.9171 176.026 81.4356 175.679C81.959 175.327 82.5509 175.151 83.2113 175.151C83.3482 175.151 83.5097 175.156 83.6955 175.165C83.8863 175.175 84.0355 175.187 84.1431 175.202V177.301C84.0551 177.276 83.8985 177.249 83.6735 177.22C83.4485 177.186 83.2235 177.169 82.9985 177.169C82.48 177.169 82.0177 177.279 81.6117 177.499C81.2106 177.714 80.8926 178.015 80.6578 178.401C80.423 178.783 80.3056 179.218 80.3056 179.707V186.59H78.1117ZM87.8223 179.898V186.59H85.6284V175.32H87.7343V177.154H87.8737C88.133 176.557 88.539 176.078 89.0917 175.716C89.6494 175.354 90.3513 175.173 91.1976 175.173C91.9655 175.173 92.6381 175.334 93.2154 175.657C93.7926 175.975 94.2402 176.449 94.5581 177.081C94.8761 177.712 95.035 178.492 95.035 179.421V186.59H92.8411V179.685C92.8411 178.868 92.6284 178.23 92.2028 177.77C91.7772 177.306 91.1927 177.073 90.4491 177.073C89.9404 177.073 89.4879 177.183 89.0917 177.403C88.7004 177.623 88.3898 177.946 88.1599 178.372C87.9348 178.793 87.8223 179.301 87.8223 179.898ZM102.825 175.32V177.081H96.6689V175.32H102.825ZM98.3199 172.619H100.514V183.281C100.514 183.706 100.577 184.027 100.705 184.242C100.832 184.452 100.996 184.597 101.196 184.675C101.402 184.748 101.624 184.785 101.864 184.785C102.04 184.785 102.194 184.773 102.326 184.748C102.458 184.724 102.561 184.704 102.634 184.689L103.031 186.502C102.903 186.551 102.722 186.6 102.488 186.649C102.253 186.702 101.959 186.732 101.607 186.737C101.03 186.746 100.492 186.644 99.9928 186.428C99.4939 186.213 99.0903 185.881 98.7821 185.431C98.474 184.98 98.3199 184.416 98.3199 183.736V172.619ZM115.155 175.32V177.081H108.999V175.32H115.155ZM110.649 172.619H112.843V183.281C112.843 183.706 112.907 184.027 113.034 184.242C113.161 184.452 113.325 184.597 113.526 184.675C113.731 184.748 113.954 184.785 114.193 184.785C114.37 184.785 114.524 184.773 114.656 184.748C114.788 184.724 114.89 184.704 114.964 184.689L115.36 186.502C115.233 186.551 115.052 186.6 114.817 186.649C114.582 186.702 114.289 186.732 113.937 186.737C113.359 186.746 112.821 186.644 112.322 186.428C111.823 186.213 111.42 185.881 111.112 185.431C110.804 184.98 110.649 184.416 110.649 183.736V172.619ZM121.794 186.817C120.738 186.817 119.816 186.575 119.028 186.091C118.241 185.607 117.629 184.929 117.194 184.058C116.759 183.188 116.541 182.17 116.541 181.006C116.541 179.837 116.759 178.815 117.194 177.939C117.629 177.063 118.241 176.383 119.028 175.899C119.816 175.415 120.738 175.173 121.794 175.173C122.851 175.173 123.773 175.415 124.561 175.899C125.348 176.383 125.96 177.063 126.395 177.939C126.83 178.815 127.048 179.837 127.048 181.006C127.048 182.17 126.83 183.188 126.395 184.058C125.96 184.929 125.348 185.607 124.561 186.091C123.773 186.575 122.851 186.817 121.794 186.817ZM121.802 184.976C122.487 184.976 123.054 184.795 123.504 184.433C123.954 184.071 124.287 183.589 124.502 182.987C124.722 182.385 124.832 181.723 124.832 180.999C124.832 180.28 124.722 179.619 124.502 179.018C124.287 178.411 123.954 177.924 123.504 177.557C123.054 177.191 122.487 177.007 121.802 177.007C121.112 177.007 120.54 177.191 120.085 177.557C119.635 177.924 119.3 178.411 119.08 179.018C118.864 179.619 118.757 180.28 118.757 180.999C118.757 181.723 118.864 182.385 119.08 182.987C119.3 183.589 119.635 184.071 120.085 184.433C120.54 184.795 121.112 184.976 121.802 184.976ZM134.345 175.32V177.081H128.189V175.32H134.345ZM129.839 172.619H132.033V183.281C132.033 183.706 132.097 184.027 132.224 184.242C132.351 184.452 132.515 184.597 132.716 184.675C132.921 184.748 133.144 184.785 133.383 184.785C133.56 184.785 133.714 184.773 133.846 184.748C133.978 184.724 134.081 184.704 134.154 184.689L134.55 186.502C134.423 186.551 134.242 186.6 134.007 186.649C133.772 186.702 133.479 186.732 133.127 186.737C132.549 186.746 132.011 186.644 131.512 186.428C131.013 186.213 130.61 185.881 130.302 185.431C129.994 184.98 129.839 184.416 129.839 183.736V172.619ZM139.638 186.839C138.924 186.839 138.278 186.707 137.701 186.443C137.124 186.174 136.666 185.785 136.329 185.276C135.996 184.768 135.83 184.144 135.83 183.405C135.83 182.769 135.952 182.246 136.197 181.835C136.441 181.424 136.772 181.099 137.187 180.859C137.603 180.62 138.068 180.439 138.582 180.316C139.095 180.194 139.619 180.101 140.152 180.038C140.827 179.959 141.375 179.896 141.795 179.847C142.216 179.793 142.522 179.707 142.713 179.59C142.903 179.473 142.999 179.282 142.999 179.018V178.966C142.999 178.325 142.818 177.829 142.456 177.477C142.099 177.125 141.565 176.948 140.856 176.948C140.118 176.948 139.535 177.112 139.11 177.44C138.689 177.763 138.398 178.122 138.237 178.519L136.175 178.049C136.419 177.364 136.777 176.811 137.246 176.391C137.721 175.965 138.266 175.657 138.882 175.466C139.499 175.271 140.147 175.173 140.827 175.173C141.277 175.173 141.754 175.227 142.258 175.334C142.766 175.437 143.241 175.628 143.681 175.907C144.126 176.185 144.491 176.584 144.774 177.103C145.058 177.616 145.2 178.284 145.2 179.106V186.59H143.057V185.049H142.969C142.827 185.333 142.615 185.612 142.331 185.885C142.047 186.159 141.683 186.387 141.238 186.568C140.793 186.749 140.259 186.839 139.638 186.839ZM140.115 185.078C140.722 185.078 141.24 184.958 141.671 184.719C142.106 184.479 142.436 184.166 142.661 183.78C142.891 183.388 143.006 182.97 143.006 182.525V181.072C142.928 181.15 142.776 181.224 142.551 181.292C142.331 181.356 142.079 181.412 141.795 181.461C141.512 181.505 141.235 181.547 140.966 181.586C140.697 181.62 140.472 181.649 140.291 181.674C139.866 181.728 139.477 181.818 139.125 181.945C138.777 182.072 138.498 182.256 138.288 182.496C138.083 182.73 137.98 183.043 137.98 183.435C137.98 183.978 138.18 184.389 138.582 184.667C138.983 184.941 139.494 185.078 140.115 185.078ZM149.903 171.563V186.59H147.709V171.563H149.903ZM162.713 186.795C162.043 186.786 161.382 186.663 160.732 186.428C160.086 186.194 159.499 185.802 158.971 185.254C158.442 184.707 158.019 183.97 157.701 183.046C157.388 182.121 157.232 180.967 157.232 179.583C157.232 178.272 157.361 177.107 157.621 176.09C157.885 175.072 158.264 174.214 158.758 173.515C159.252 172.81 159.849 172.274 160.548 171.908C161.248 171.541 162.033 171.357 162.904 171.357C163.799 171.357 164.594 171.533 165.288 171.886C165.983 172.238 166.545 172.725 166.976 173.346C167.411 173.967 167.688 174.674 167.805 175.466H165.567C165.415 174.84 165.115 174.329 164.665 173.933C164.215 173.537 163.628 173.338 162.904 173.338C161.803 173.338 160.945 173.818 160.328 174.777C159.717 175.735 159.409 177.068 159.404 178.775H159.514C159.773 178.35 160.091 177.988 160.468 177.69C160.849 177.386 161.275 177.154 161.744 176.992C162.219 176.826 162.718 176.743 163.241 176.743C164.112 176.743 164.899 176.956 165.604 177.381C166.313 177.802 166.878 178.384 167.299 179.128C167.719 179.871 167.93 180.722 167.93 181.681C167.93 182.64 167.712 183.508 167.277 184.286C166.846 185.064 166.24 185.68 165.457 186.135C164.674 186.585 163.76 186.805 162.713 186.795ZM162.706 184.888C163.283 184.888 163.799 184.746 164.254 184.462C164.709 184.178 165.068 183.797 165.332 183.317C165.596 182.838 165.729 182.302 165.729 181.71C165.729 181.133 165.599 180.607 165.34 180.133C165.085 179.658 164.733 179.282 164.283 179.003C163.838 178.724 163.329 178.585 162.757 178.585C162.322 178.585 161.918 178.668 161.546 178.834C161.179 179 160.856 179.23 160.578 179.524C160.299 179.817 160.079 180.155 159.917 180.536C159.761 180.913 159.683 181.312 159.683 181.732C159.683 182.295 159.812 182.816 160.071 183.295C160.336 183.775 160.695 184.161 161.15 184.455C161.61 184.743 162.128 184.888 162.706 184.888ZM172.387 184.535L172.277 185.335C172.203 185.922 172.079 186.534 171.903 187.17C171.731 187.81 171.553 188.405 171.367 188.953C171.186 189.5 171.037 189.936 170.919 190.259H169.364C169.427 189.955 169.515 189.544 169.628 189.026C169.74 188.512 169.85 187.937 169.958 187.302C170.066 186.666 170.146 186.018 170.2 185.357L170.274 184.535H172.387ZM178.928 171.563V186.59H176.653V173.837H176.565L172.97 176.185V174.013L176.719 171.563H178.928ZM182.579 186.59V184.946L187.664 179.678C188.207 179.106 188.655 178.604 189.007 178.174C189.364 177.738 189.631 177.325 189.807 176.934C189.983 176.542 190.071 176.127 190.071 175.686C190.071 175.187 189.953 174.757 189.719 174.395C189.484 174.028 189.163 173.747 188.757 173.551C188.351 173.351 187.894 173.25 187.385 173.25C186.847 173.25 186.378 173.36 185.977 173.581C185.575 173.801 185.267 174.111 185.052 174.512C184.837 174.914 184.729 175.383 184.729 175.921H182.565C182.565 175.006 182.775 174.207 183.196 173.522C183.616 172.837 184.194 172.306 184.927 171.93C185.661 171.548 186.495 171.357 187.429 171.357C188.373 171.357 189.205 171.546 189.924 171.922C190.648 172.294 191.213 172.803 191.619 173.448C192.025 174.089 192.228 174.813 192.228 175.62C192.228 176.178 192.123 176.723 191.913 177.257C191.707 177.79 191.348 178.384 190.834 179.04C190.32 179.69 189.606 180.48 188.691 181.41L185.705 184.535V184.645H192.47V186.59H182.579ZM200.069 186.795C199.062 186.795 198.162 186.622 197.369 186.274C196.582 185.927 195.958 185.445 195.498 184.829C195.043 184.208 194.799 183.489 194.764 182.672H197.068C197.098 183.117 197.247 183.503 197.516 183.831C197.79 184.154 198.147 184.403 198.587 184.579C199.028 184.755 199.517 184.844 200.055 184.844C200.647 184.844 201.17 184.741 201.625 184.535C202.085 184.33 202.444 184.044 202.704 183.677C202.963 183.305 203.092 182.877 203.092 182.393C203.092 181.889 202.963 181.446 202.704 181.065C202.449 180.678 202.075 180.375 201.581 180.155C201.092 179.935 200.5 179.825 199.805 179.825H198.536V177.976H199.805C200.363 177.976 200.852 177.875 201.273 177.675C201.698 177.474 202.031 177.195 202.271 176.838C202.51 176.476 202.63 176.053 202.63 175.569C202.63 175.104 202.525 174.701 202.315 174.358C202.109 174.011 201.816 173.74 201.434 173.544C201.058 173.348 200.612 173.25 200.099 173.25C199.61 173.25 199.152 173.341 198.727 173.522C198.306 173.698 197.964 173.952 197.699 174.285C197.435 174.613 197.293 175.006 197.274 175.466H195.08C195.104 174.654 195.344 173.94 195.799 173.324C196.259 172.707 196.865 172.226 197.619 171.878C198.372 171.531 199.208 171.357 200.128 171.357C201.092 171.357 201.923 171.546 202.623 171.922C203.327 172.294 203.87 172.791 204.252 173.412C204.638 174.033 204.829 174.713 204.824 175.452C204.829 176.293 204.594 177.007 204.12 177.594C203.65 178.181 203.024 178.575 202.241 178.775V178.893C203.239 179.045 204.012 179.441 204.56 180.082C205.113 180.722 205.387 181.517 205.382 182.466C205.387 183.293 205.157 184.034 204.692 184.689C204.232 185.345 203.604 185.861 202.806 186.238C202.009 186.609 201.097 186.795 200.069 186.795ZM55.1484 207.767L55.1337 205.089H55.5153L60.0058 200.32H62.6326L57.511 205.749H57.1662L55.1484 207.767ZM53.1306 211.59V196.563H55.3245V211.59H53.1306ZM60.2479 211.59L56.2123 206.234L57.7238 204.7L62.9408 211.59H60.2479ZM68.502 211.817C67.4112 211.817 66.472 211.57 65.6844 211.076C64.9018 210.577 64.3001 209.89 63.8794 209.014C63.4588 208.139 63.2484 207.136 63.2484 206.006C63.2484 204.861 63.4636 203.851 63.8941 202.976C64.3246 202.095 64.9311 201.408 65.7138 200.914C66.4965 200.42 67.4185 200.173 68.48 200.173C69.3361 200.173 70.0991 200.332 70.7693 200.65C71.4395 200.963 71.98 201.403 72.3909 201.97C72.8067 202.538 73.0537 203.201 73.132 203.959H70.9968C70.8794 203.431 70.6103 202.976 70.1896 202.594C69.7739 202.213 69.2162 202.022 68.5167 202.022C67.9052 202.022 67.3696 202.183 66.9098 202.506C66.4549 202.824 66.1002 203.279 65.8459 203.871C65.5915 204.458 65.4643 205.152 65.4643 205.955C65.4643 206.776 65.5891 207.486 65.8385 208.083C66.088 208.679 66.4402 209.142 66.8951 209.469C67.3549 209.797 67.8955 209.961 68.5167 209.961C68.9325 209.961 69.3091 209.885 69.6467 209.733C69.9891 209.577 70.2752 209.354 70.5052 209.066C70.7399 208.777 70.9038 208.43 70.9968 208.024H73.132C73.0537 208.753 72.8164 209.403 72.4202 209.976C72.024 210.548 71.4933 210.998 70.828 211.326C70.1676 211.653 69.3923 211.817 68.502 211.817ZM78.3447 211.839C77.6305 211.839 76.9848 211.707 76.4076 211.443C75.8304 211.174 75.373 210.785 75.0355 210.276C74.7029 209.768 74.5366 209.144 74.5366 208.405C74.5366 207.769 74.6589 207.246 74.9034 206.835C75.148 206.424 75.4782 206.099 75.894 205.859C76.3098 205.62 76.7745 205.439 77.2881 205.316C77.8017 205.194 78.3251 205.101 78.8583 205.038C79.5334 204.959 80.0812 204.896 80.5019 204.847C80.9226 204.793 81.2283 204.707 81.4191 204.59C81.6099 204.473 81.7053 204.282 81.7053 204.018V203.966C81.7053 203.325 81.5243 202.829 81.1623 202.477C80.8052 202.125 80.272 201.948 79.5627 201.948C78.8241 201.948 78.242 202.112 77.8164 202.44C77.3957 202.763 77.1047 203.122 76.9432 203.519L74.8814 203.049C75.126 202.364 75.4831 201.811 75.9527 201.391C76.4272 200.965 76.9726 200.657 77.5889 200.466C78.2053 200.271 78.8534 200.173 79.5334 200.173C79.9834 200.173 80.4603 200.227 80.9642 200.334C81.4729 200.437 81.9474 200.628 82.3876 200.907C82.8328 201.185 83.1972 201.584 83.4809 202.103C83.7646 202.616 83.9065 203.284 83.9065 204.106V211.59H81.764V210.049H81.6759C81.534 210.333 81.3213 210.612 81.0375 210.885C80.7538 211.159 80.3894 211.387 79.9443 211.568C79.4991 211.749 78.9659 211.839 78.3447 211.839ZM78.8216 210.078C79.4282 210.078 79.9467 209.958 80.3772 209.719C80.8125 209.479 81.1427 209.166 81.3677 208.78C81.5976 208.388 81.7126 207.97 81.7126 207.525V206.072C81.6343 206.15 81.4827 206.224 81.2577 206.292C81.0375 206.356 80.7856 206.412 80.5019 206.461C80.2182 206.505 79.9418 206.547 79.6728 206.586C79.4037 206.62 79.1787 206.649 78.9977 206.674C78.5722 206.728 78.1833 206.818 77.8311 206.945C77.4838 207.072 77.205 207.256 76.9946 207.496C76.7892 207.73 76.6864 208.043 76.6864 208.435C76.6864 208.978 76.887 209.389 77.2881 209.667C77.6892 209.941 78.2004 210.078 78.8216 210.078ZM88.6093 196.563V211.59H86.4154V196.563H88.6093ZM96.2025 211.59V200.32H98.3964V211.59H96.2025ZM97.3105 198.581C96.9289 198.581 96.6012 198.453 96.3272 198.199C96.0582 197.94 95.9237 197.632 95.9237 197.274C95.9237 196.913 96.0582 196.604 96.3272 196.35C96.6012 196.091 96.9289 195.961 97.3105 195.961C97.692 195.961 98.0173 196.091 98.2863 196.35C98.5603 196.604 98.6972 196.913 98.6972 197.274C98.6972 197.632 98.5603 197.94 98.2863 198.199C98.0173 198.453 97.692 198.581 97.3105 198.581ZM103.129 204.898V211.59H100.935V200.32H103.04V202.154H103.18C103.439 201.557 103.845 201.078 104.398 200.716C104.956 200.354 105.658 200.173 106.504 200.173C107.272 200.173 107.944 200.334 108.522 200.657C109.099 200.975 109.546 201.449 109.864 202.081C110.182 202.712 110.341 203.492 110.341 204.421V211.59H108.147V204.685C108.147 203.868 107.935 203.23 107.509 202.77C107.083 202.306 106.499 202.073 105.755 202.073C105.247 202.073 104.794 202.183 104.398 202.403C104.007 202.623 103.696 202.946 103.466 203.372C103.241 203.793 103.129 204.301 103.129 204.898ZM121.205 211.839C120.491 211.839 119.845 211.707 119.268 211.443C118.691 211.174 118.233 210.785 117.896 210.276C117.563 209.768 117.397 209.144 117.397 208.405C117.397 207.769 117.519 207.246 117.764 206.835C118.008 206.424 118.339 206.099 118.754 205.859C119.17 205.62 119.635 205.439 120.149 205.316C120.662 205.194 121.186 205.101 121.719 205.038C122.394 204.959 122.942 204.896 123.362 204.847C123.783 204.793 124.089 204.707 124.28 204.59C124.47 204.473 124.566 204.282 124.566 204.018V203.966C124.566 203.325 124.385 202.829 124.023 202.477C123.666 202.125 123.132 201.948 122.423 201.948C121.685 201.948 121.102 202.112 120.677 202.44C120.256 202.763 119.965 203.122 119.804 203.519L117.742 203.049C117.986 202.364 118.344 201.811 118.813 201.391C119.288 200.965 119.833 200.657 120.449 200.466C121.066 200.271 121.714 200.173 122.394 200.173C122.844 200.173 123.321 200.227 123.825 200.334C124.333 200.437 124.808 200.628 125.248 200.907C125.693 201.185 126.058 201.584 126.341 202.103C126.625 202.616 126.767 203.284 126.767 204.106V211.59H124.624V210.049H124.536C124.394 210.333 124.182 210.612 123.898 210.885C123.614 211.159 123.25 211.387 122.805 211.568C122.36 211.749 121.826 211.839 121.205 211.839ZM121.682 210.078C122.289 210.078 122.807 209.958 123.238 209.719C123.673 209.479 124.003 209.166 124.228 208.78C124.458 208.388 124.573 207.97 124.573 207.525V206.072C124.495 206.15 124.343 206.224 124.118 206.292C123.898 206.356 123.646 206.412 123.362 206.461C123.079 206.505 122.802 206.547 122.533 206.586C122.264 206.62 122.039 206.649 121.858 206.674C121.433 206.728 121.044 206.818 120.692 206.945C120.344 207.072 120.065 207.256 119.855 207.496C119.65 207.73 119.547 208.043 119.547 208.435C119.547 208.978 119.747 209.389 120.149 209.667C120.55 209.941 121.061 210.078 121.682 210.078ZM134.331 211.59V200.32H136.437V202.154H136.576C136.811 201.533 137.195 201.048 137.728 200.701C138.261 200.349 138.9 200.173 139.643 200.173C140.396 200.173 141.027 200.349 141.536 200.701C142.05 201.053 142.429 201.538 142.674 202.154H142.791C143.06 201.552 143.488 201.073 144.075 200.716C144.662 200.354 145.361 200.173 146.173 200.173C147.196 200.173 148.03 200.493 148.676 201.134C149.326 201.775 149.651 202.741 149.651 204.032V211.59H147.458V204.238C147.458 203.475 147.25 202.922 146.834 202.579C146.418 202.237 145.922 202.066 145.344 202.066C144.63 202.066 144.075 202.286 143.679 202.726C143.283 203.162 143.084 203.722 143.084 204.406V211.59H140.898V204.098C140.898 203.487 140.707 202.995 140.326 202.623C139.944 202.252 139.447 202.066 138.836 202.066C138.42 202.066 138.036 202.176 137.684 202.396C137.337 202.611 137.055 202.912 136.84 203.299C136.63 203.685 136.525 204.133 136.525 204.641V211.59H134.331ZM156.926 211.817C155.869 211.817 154.947 211.575 154.16 211.091C153.372 210.607 152.761 209.929 152.325 209.058C151.89 208.188 151.672 207.17 151.672 206.006C151.672 204.837 151.89 203.815 152.325 202.939C152.761 202.063 153.372 201.383 154.16 200.899C154.947 200.415 155.869 200.173 156.926 200.173C157.983 200.173 158.905 200.415 159.692 200.899C160.48 201.383 161.091 202.063 161.527 202.939C161.962 203.815 162.18 204.837 162.18 206.006C162.18 207.17 161.962 208.188 161.527 209.058C161.091 209.929 160.48 210.607 159.692 211.091C158.905 211.575 157.983 211.817 156.926 211.817ZM156.933 209.976C157.618 209.976 158.186 209.795 158.636 209.433C159.086 209.071 159.418 208.589 159.633 207.987C159.854 207.385 159.964 206.723 159.964 205.999C159.964 205.28 159.854 204.619 159.633 204.018C159.418 203.411 159.086 202.924 158.636 202.557C158.186 202.191 157.618 202.007 156.933 202.007C156.244 202.007 155.671 202.191 155.216 202.557C154.766 202.924 154.431 203.411 154.211 204.018C153.996 204.619 153.888 205.28 153.888 205.999C153.888 206.723 153.996 207.385 154.211 207.987C154.431 208.589 154.766 209.071 155.216 209.433C155.671 209.795 156.244 209.976 156.933 209.976ZM166.409 204.898V211.59H164.215V200.32H166.321V202.154H166.46C166.72 201.557 167.126 201.078 167.678 200.716C168.236 200.354 168.938 200.173 169.784 200.173C170.552 200.173 171.225 200.334 171.802 200.657C172.379 200.975 172.827 201.449 173.145 202.081C173.463 202.712 173.622 203.492 173.622 204.421V211.59H171.428V204.685C171.428 203.868 171.215 203.23 170.79 202.77C170.364 202.306 169.779 202.073 169.036 202.073C168.527 202.073 168.075 202.183 167.678 202.403C167.287 202.623 166.977 202.946 166.747 203.372C166.522 203.793 166.409 204.301 166.409 204.898ZM181.412 200.32V202.081H175.256V200.32H181.412ZM176.907 197.619H179.101V208.281C179.101 208.706 179.164 209.027 179.291 209.242C179.419 209.452 179.582 209.597 179.783 209.675C179.988 209.748 180.211 209.785 180.451 209.785C180.627 209.785 180.781 209.773 180.913 209.748C181.045 209.724 181.148 209.704 181.221 209.689L181.617 211.502C181.49 211.551 181.309 211.6 181.074 211.649C180.84 211.702 180.546 211.732 180.194 211.737C179.617 211.746 179.079 211.644 178.58 211.428C178.081 211.213 177.677 210.881 177.369 210.431C177.061 209.98 176.907 209.416 176.907 208.736V197.619ZM185.861 204.898V211.59H183.668V196.563H185.832V202.154H185.972C186.236 201.547 186.639 201.065 187.182 200.708C187.725 200.351 188.434 200.173 189.31 200.173C190.083 200.173 190.758 200.332 191.335 200.65C191.917 200.968 192.367 201.442 192.685 202.073C193.008 202.699 193.17 203.482 193.17 204.421V211.59H190.976V204.685C190.976 203.859 190.763 203.218 190.337 202.763C189.912 202.303 189.32 202.073 188.562 202.073C188.043 202.073 187.578 202.183 187.168 202.403C186.762 202.623 186.441 202.946 186.206 203.372C185.976 203.793 185.861 204.301 185.861 204.898Z" fill="white"/>
<path d="M338.345 176.92C338.345 192.611 325.625 205.331 309.934 205.331C294.243 205.331 281.523 192.611 281.523 176.92C281.523 161.23 294.243 148.51 309.934 148.51C325.625 148.51 338.345 161.23 338.345 176.92ZM288.893 176.92C288.893 188.541 298.313 197.961 309.934 197.961C321.555 197.961 330.975 188.541 330.975 176.92C330.975 165.3 321.555 155.879 309.934 155.879C298.313 155.879 288.893 165.3 288.893 176.92Z" fill="#414141"/>
<path d="M309.934 148.51C317.469 148.51 324.695 151.503 330.023 156.831C335.351 162.159 338.345 169.385 338.345 176.92C338.345 184.455 335.351 191.682 330.023 197.01C324.695 202.338 317.469 205.331 309.934 205.331V197.961C315.514 197.961 320.866 195.745 324.812 191.799C328.758 187.853 330.975 182.501 330.975 176.92C330.975 171.34 328.758 165.988 324.812 162.042C320.866 158.096 315.514 155.879 309.934 155.879V148.51Z" fill="#BBF247"/>
<path d="M298.267 181.744C297.533 181.744 296.876 181.606 296.297 181.331C295.717 181.052 295.257 180.671 294.915 180.187C294.578 179.702 294.398 179.148 294.376 178.525H296.357C296.394 178.987 296.594 179.365 296.957 179.658C297.32 179.948 297.757 180.093 298.267 180.093C298.667 180.093 299.022 180.001 299.334 179.818C299.646 179.634 299.892 179.379 300.072 179.053C300.251 178.726 300.34 178.354 300.336 177.936C300.34 177.51 300.25 177.132 300.066 176.802C299.883 176.472 299.631 176.213 299.312 176.026C298.993 175.835 298.626 175.74 298.212 175.74C297.874 175.736 297.542 175.799 297.216 175.927C296.889 176.056 296.63 176.224 296.44 176.433L294.596 176.131L295.185 170.32H301.723V172.025H296.874L296.55 175.014H296.616C296.825 174.768 297.12 174.564 297.502 174.403C297.883 174.238 298.302 174.155 298.756 174.155C299.439 174.155 300.048 174.317 300.583 174.639C301.119 174.959 301.541 175.399 301.849 175.96C302.157 176.522 302.311 177.164 302.311 177.886C302.311 178.631 302.139 179.295 301.794 179.878C301.453 180.458 300.978 180.915 300.369 181.249C299.764 181.579 299.063 181.744 298.267 181.744ZM308.011 181.804C307.105 181.804 306.327 181.575 305.678 181.117C305.032 180.654 304.535 179.988 304.186 179.119C303.841 178.246 303.669 177.195 303.669 175.966C303.673 174.737 303.847 173.691 304.192 172.829C304.54 171.963 305.037 171.303 305.683 170.848C306.332 170.393 307.108 170.165 308.011 170.165C308.913 170.165 309.689 170.393 310.339 170.848C310.988 171.303 311.485 171.963 311.83 172.829C312.179 173.695 312.353 174.74 312.353 175.966C312.353 177.198 312.179 178.251 311.83 179.124C311.485 179.994 310.988 180.658 310.339 181.117C309.693 181.575 308.917 181.804 308.011 181.804ZM308.011 180.082C308.715 180.082 309.271 179.735 309.678 179.042C310.089 178.345 310.295 177.319 310.295 175.966C310.295 175.071 310.201 174.318 310.014 173.709C309.827 173.1 309.563 172.642 309.222 172.334C308.88 172.022 308.477 171.866 308.011 171.866C307.31 171.866 306.756 172.214 306.349 172.911C305.942 173.605 305.736 174.623 305.733 175.966C305.729 176.865 305.819 177.62 306.002 178.233C306.189 178.846 306.454 179.308 306.795 179.62C307.136 179.928 307.541 180.082 308.011 180.082ZM319.897 179.477V178.882C319.897 178.446 319.989 178.044 320.172 177.677C320.359 177.31 320.631 177.015 320.987 176.791C321.343 176.567 321.774 176.455 322.28 176.455C322.801 176.455 323.238 176.567 323.59 176.791C323.942 177.011 324.208 177.305 324.388 177.672C324.571 178.039 324.663 178.442 324.663 178.882V179.477C324.663 179.913 324.571 180.315 324.388 180.682C324.204 181.049 323.935 181.344 323.579 181.568C323.227 181.792 322.794 181.904 322.28 181.904C321.766 181.904 321.332 181.792 320.976 181.568C320.62 181.344 320.35 181.049 320.167 180.682C319.987 180.315 319.897 179.913 319.897 179.477ZM321.333 178.882V179.477C321.333 179.766 321.403 180.032 321.543 180.275C321.682 180.517 321.928 180.638 322.28 180.638C322.636 180.638 322.88 180.519 323.012 180.28C323.148 180.038 323.216 179.77 323.216 179.477V178.882C323.216 178.589 323.151 178.321 323.023 178.079C322.895 177.833 322.647 177.71 322.28 177.71C321.935 177.71 321.691 177.833 321.548 178.079C321.405 178.321 321.333 178.589 321.333 178.882ZM314.168 173.027V172.433C314.168 171.992 314.262 171.589 314.449 171.222C314.636 170.855 314.908 170.562 315.264 170.342C315.619 170.118 316.051 170.006 316.557 170.006C317.074 170.006 317.509 170.118 317.861 170.342C318.217 170.562 318.485 170.855 318.664 171.222C318.844 171.589 318.934 171.992 318.934 172.433V173.027C318.934 173.467 318.842 173.871 318.659 174.238C318.479 174.601 318.211 174.893 317.856 175.113C317.5 175.333 317.067 175.443 316.557 175.443C316.04 175.443 315.603 175.333 315.247 175.113C314.895 174.893 314.627 174.599 314.444 174.232C314.26 173.865 314.168 173.464 314.168 173.027ZM315.616 172.433V173.027C315.616 173.321 315.684 173.588 315.819 173.83C315.959 174.069 316.205 174.188 316.557 174.188C316.909 174.188 317.151 174.069 317.283 173.83C317.419 173.588 317.487 173.321 317.487 173.027V172.433C317.487 172.139 317.423 171.871 317.294 171.629C317.166 171.383 316.92 171.261 316.557 171.261C316.208 171.261 315.964 171.383 315.825 171.629C315.685 171.875 315.616 172.143 315.616 172.433ZM314.796 181.59L322.544 170.32H323.92L316.172 181.59H314.796Z" fill="white"/>
<path opacity="0.5" d="M53.248 274.986V261.838H61.1834V263.25H54.8402V267.693H60.7725V269.105H54.8402V273.574H61.2862V274.986H53.248ZM64.6162 265.125L66.9789 269.157L69.3415 265.125H71.0879L67.9034 270.056L71.0879 274.986H69.3415L66.9789 271.16L64.6162 274.986H62.8699L66.003 270.056L62.8699 265.125H64.6162ZM76.6169 275.192C75.6667 275.192 74.847 274.982 74.1579 274.563C73.4731 274.139 72.9445 273.548 72.5721 272.791C72.204 272.029 72.02 271.143 72.02 270.133C72.02 269.122 72.204 268.232 72.5721 267.462C72.9445 266.687 73.4624 266.084 74.1258 265.651C74.7935 265.215 75.5725 264.996 76.4628 264.996C76.9764 264.996 77.4836 265.082 77.9844 265.253C78.4852 265.424 78.941 265.703 79.3519 266.088C79.7628 266.469 80.0902 266.974 80.3342 267.603C80.5782 268.232 80.7002 269.007 80.7002 269.927V270.569H73.0986V269.259H79.1593C79.1593 268.703 79.048 268.207 78.8254 267.77C78.6071 267.333 78.2947 266.989 77.8881 266.736C77.4857 266.484 77.0106 266.357 76.4628 266.357C75.8593 266.357 75.3371 266.507 74.8962 266.807C74.4597 267.102 74.1237 267.487 73.8882 267.963C73.6528 268.438 73.5351 268.947 73.5351 269.491V270.364C73.5351 271.108 73.6635 271.74 73.9203 272.258C74.1814 272.771 74.5431 273.163 75.0054 273.433C75.4676 273.698 76.0048 273.831 76.6169 273.831C77.0149 273.831 77.3745 273.775 77.6955 273.664C78.0208 273.548 78.3011 273.377 78.5365 273.15C78.7719 272.919 78.9538 272.632 79.0822 272.29L80.5461 272.701C80.392 273.197 80.133 273.634 79.7692 274.01C79.4054 274.383 78.956 274.674 78.421 274.884C77.8859 275.089 77.2846 275.192 76.6169 275.192ZM82.6434 274.986V265.125H84.1073V266.614H84.21C84.3898 266.126 84.715 265.73 85.1859 265.427C85.6567 265.123 86.1874 264.971 86.7781 264.971C86.8894 264.971 87.0285 264.973 87.1954 264.977C87.3623 264.981 87.4886 264.988 87.5742 264.996V266.537C87.5228 266.524 87.4051 266.505 87.2211 266.479C87.0413 266.45 86.8509 266.435 86.6497 266.435C86.1703 266.435 85.7423 266.535 85.3656 266.736C84.9933 266.933 84.6979 267.207 84.4796 267.558C84.2656 267.905 84.1586 268.301 84.1586 268.746V274.986H82.6434ZM92.7148 275.192C91.7903 275.192 90.9942 274.973 90.3264 274.537C89.6587 274.1 89.1451 273.499 88.7856 272.733C88.426 271.967 88.2463 271.091 88.2463 270.107C88.2463 269.105 88.4303 268.222 88.7984 267.455C89.1708 266.685 89.6887 266.084 90.3521 265.651C91.0198 265.215 91.7988 264.996 92.6891 264.996C93.3825 264.996 94.0074 265.125 94.5638 265.382C95.1202 265.638 95.5761 265.998 95.9313 266.46C96.2866 266.922 96.507 267.462 96.5926 268.078H95.0774C94.9619 267.629 94.7051 267.231 94.307 266.884C93.9132 266.533 93.3825 266.357 92.7148 266.357C92.1241 266.357 91.6062 266.512 91.1611 266.82C90.7202 267.124 90.3757 267.554 90.1274 268.11C89.8834 268.662 89.7615 269.311 89.7615 270.056C89.7615 270.817 89.8813 271.481 90.121 272.046C90.365 272.611 90.7074 273.05 91.1482 273.362C91.5934 273.674 92.1156 273.831 92.7148 273.831C93.1086 273.831 93.466 273.762 93.787 273.625C94.108 273.488 94.3798 273.291 94.6023 273.035C94.8249 272.778 94.9833 272.47 95.0774 272.11H96.5926C96.507 272.692 96.2952 273.216 95.957 273.683C95.6232 274.145 95.1802 274.513 94.628 274.787C94.0802 275.057 93.4424 275.192 92.7148 275.192ZM98.446 274.986V265.125H99.9612V274.986H98.446ZM99.2165 263.481C98.9211 263.481 98.6665 263.381 98.4524 263.179C98.2427 262.978 98.1379 262.736 98.1379 262.454C98.1379 262.171 98.2427 261.93 98.4524 261.728C98.6665 261.527 98.9211 261.427 99.2165 261.427C99.5118 261.427 99.7643 261.527 99.9741 261.728C100.188 261.93 100.295 262.171 100.295 262.454C100.295 262.736 100.188 262.978 99.9741 263.179C99.7643 263.381 99.5118 263.481 99.2165 263.481ZM109.36 267.333L107.999 267.719C107.913 267.492 107.787 267.271 107.62 267.057C107.457 266.839 107.235 266.659 106.952 266.518C106.67 266.377 106.308 266.306 105.867 266.306C105.264 266.306 104.761 266.445 104.359 266.723C103.961 266.997 103.762 267.346 103.762 267.77C103.762 268.147 103.899 268.444 104.172 268.662C104.446 268.881 104.874 269.063 105.457 269.208L106.92 269.568C107.802 269.782 108.459 270.109 108.891 270.55C109.324 270.987 109.54 271.549 109.54 272.238C109.54 272.803 109.377 273.308 109.052 273.754C108.731 274.199 108.281 274.55 107.704 274.807C107.126 275.063 106.454 275.192 105.688 275.192C104.682 275.192 103.849 274.973 103.19 274.537C102.531 274.1 102.114 273.463 101.938 272.624L103.376 272.264C103.513 272.795 103.772 273.193 104.153 273.458C104.538 273.724 105.041 273.856 105.662 273.856C106.368 273.856 106.929 273.707 107.344 273.407C107.764 273.103 107.973 272.739 107.973 272.315C107.973 271.973 107.853 271.686 107.614 271.455C107.374 271.22 107.006 271.044 106.509 270.929L104.866 270.544C103.963 270.329 103.299 269.998 102.876 269.548C102.456 269.095 102.246 268.528 102.246 267.847C102.246 267.291 102.403 266.798 102.715 266.37C103.032 265.942 103.462 265.606 104.006 265.362C104.553 265.118 105.174 264.996 105.867 264.996C106.843 264.996 107.609 265.21 108.166 265.638C108.727 266.066 109.125 266.631 109.36 267.333ZM115.594 275.192C114.643 275.192 113.824 274.982 113.135 274.563C112.45 274.139 111.921 273.548 111.549 272.791C111.181 272.029 110.997 271.143 110.997 270.133C110.997 269.122 111.181 268.232 111.549 267.462C111.921 266.687 112.439 266.084 113.103 265.651C113.77 265.215 114.549 264.996 115.44 264.996C115.953 264.996 116.46 265.082 116.961 265.253C117.462 265.424 117.918 265.703 118.329 266.088C118.74 266.469 119.067 266.974 119.311 267.603C119.555 268.232 119.677 269.007 119.677 269.927V270.569H112.075V269.259H118.136C118.136 268.703 118.025 268.207 117.802 267.77C117.584 267.333 117.271 266.989 116.865 266.736C116.463 266.484 115.987 266.357 115.44 266.357C114.836 266.357 114.314 266.507 113.873 266.807C113.436 267.102 113.1 267.487 112.865 267.963C112.63 268.438 112.512 268.947 112.512 269.491V270.364C112.512 271.108 112.64 271.74 112.897 272.258C113.158 272.771 113.52 273.163 113.982 273.433C114.444 273.698 114.982 273.831 115.594 273.831C115.992 273.831 116.351 273.775 116.672 273.664C116.998 273.548 117.278 273.377 117.513 273.15C117.749 272.919 117.931 272.632 118.059 272.29L119.523 272.701C119.369 273.197 119.11 273.634 118.746 274.01C118.382 274.383 117.933 274.674 117.398 274.884C116.863 275.089 116.261 275.192 115.594 275.192Z" fill="white"/>
<path d="M53.3067 304.105V289.078H62.6252V291.03H55.574V295.609H61.9575V297.553H55.574V304.105H53.3067ZM64.8241 304.105V292.835H67.018V304.105H64.8241ZM65.9321 291.096C65.5505 291.096 65.2228 290.969 64.9489 290.715C64.6798 290.455 64.5453 290.147 64.5453 289.79C64.5453 289.428 64.6798 289.12 64.9489 288.866C65.2228 288.606 65.5505 288.477 65.9321 288.477C66.3136 288.477 66.6389 288.606 66.908 288.866C67.1819 289.12 67.3189 289.428 67.3189 289.79C67.3189 290.147 67.1819 290.455 66.908 290.715C66.6389 290.969 66.3136 291.096 65.9321 291.096ZM71.7502 297.414V304.105H69.5563V292.835H71.6621V294.67H71.8015C72.0608 294.073 72.4668 293.593 73.0195 293.231C73.5772 292.869 74.2791 292.688 75.1254 292.688C75.8934 292.688 76.566 292.85 77.1432 293.173C77.7204 293.491 78.168 293.965 78.4859 294.596C78.8039 295.227 78.9629 296.007 78.9629 296.937V304.105H76.769V297.201C76.769 296.384 76.5562 295.746 76.1306 295.286C75.7051 294.821 75.1205 294.589 74.377 294.589C73.8682 294.589 73.4158 294.699 73.0195 294.919C72.6282 295.139 72.3176 295.462 72.0877 295.888C71.8627 296.308 71.7502 296.817 71.7502 297.414ZM81.492 304.105V292.835H83.6858V304.105H81.492ZM82.5999 291.096C82.2184 291.096 81.8906 290.969 81.6167 290.715C81.3476 290.455 81.2131 290.147 81.2131 289.79C81.2131 289.428 81.3476 289.12 81.6167 288.866C81.8906 288.606 82.2184 288.477 82.5999 288.477C82.9815 288.477 83.3067 288.606 83.5758 288.866C83.8497 289.12 83.9867 289.428 83.9867 289.79C83.9867 290.147 83.8497 290.455 83.5758 290.715C83.3067 290.969 82.9815 291.096 82.5999 291.096ZM94.6695 295.587L92.681 295.939C92.5979 295.685 92.4658 295.442 92.2848 295.212C92.1087 294.983 91.869 294.794 91.5658 294.647C91.2625 294.501 90.8834 294.427 90.4284 294.427C89.8072 294.427 89.2887 294.567 88.8729 294.846C88.4571 295.12 88.2492 295.474 88.2492 295.91C88.2492 296.286 88.3886 296.589 88.6675 296.819C88.9463 297.049 89.3963 297.238 90.0176 297.384L91.8079 297.795C92.8449 298.035 93.6178 298.404 94.1265 298.903C94.6353 299.402 94.8896 300.05 94.8896 300.848C94.8896 301.523 94.694 302.124 94.3026 302.653C93.9162 303.176 93.3757 303.587 92.681 303.885C91.9913 304.184 91.1915 304.333 90.2817 304.333C89.0197 304.333 87.99 304.064 87.1926 303.526C86.3953 302.983 85.9061 302.212 85.7251 301.215L87.8457 300.892C87.9777 301.444 88.2492 301.863 88.6601 302.146C89.071 302.425 89.6067 302.565 90.267 302.565C90.9861 302.565 91.5609 302.415 91.9913 302.117C92.4218 301.814 92.637 301.444 92.637 301.009C92.637 300.657 92.5049 300.361 92.2408 300.121C91.9815 299.882 91.5829 299.701 91.0448 299.578L89.1371 299.16C88.0854 298.92 87.3076 298.539 86.8037 298.015C86.3048 297.492 86.0553 296.829 86.0553 296.027C86.0553 295.362 86.2412 294.78 86.613 294.281C86.9847 293.782 87.4984 293.393 88.1538 293.114C88.8093 292.83 89.5602 292.688 90.4064 292.688C91.6245 292.688 92.5832 292.953 93.2827 293.481C93.9822 294.004 94.4445 294.706 94.6695 295.587ZM99.0825 297.414V304.105H96.8886V289.078H99.0531V294.67H99.1925C99.4567 294.063 99.8602 293.581 100.403 293.224C100.946 292.867 101.655 292.688 102.531 292.688C103.304 292.688 103.979 292.847 104.556 293.165C105.138 293.483 105.588 293.958 105.906 294.589C106.229 295.215 106.391 295.998 106.391 296.937V304.105H104.197V297.201C104.197 296.374 103.984 295.733 103.558 295.279C103.133 294.819 102.541 294.589 101.783 294.589C101.264 294.589 100.799 294.699 100.389 294.919C99.9825 295.139 99.6621 295.462 99.4273 295.888C99.1974 296.308 99.0825 296.817 99.0825 297.414ZM119.162 304.311C118.155 304.311 117.254 304.137 116.462 303.79C115.674 303.443 115.051 302.961 114.591 302.344C114.136 301.723 113.891 301.004 113.857 300.187H116.161C116.191 300.632 116.34 301.019 116.609 301.347C116.883 301.669 117.24 301.919 117.68 302.095C118.12 302.271 118.609 302.359 119.148 302.359C119.739 302.359 120.263 302.256 120.718 302.051C121.178 301.846 121.537 301.559 121.796 301.193C122.056 300.821 122.185 300.393 122.185 299.908C122.185 299.405 122.056 298.962 121.796 298.58C121.542 298.194 121.168 297.891 120.674 297.671C120.185 297.45 119.593 297.34 118.898 297.34H117.629V295.491H118.898C119.456 295.491 119.945 295.391 120.366 295.19C120.791 294.99 121.124 294.711 121.363 294.354C121.603 293.992 121.723 293.569 121.723 293.085C121.723 292.62 121.618 292.216 121.407 291.874C121.202 291.527 120.909 291.255 120.527 291.059C120.15 290.864 119.705 290.766 119.192 290.766C118.702 290.766 118.245 290.856 117.819 291.037C117.399 291.214 117.056 291.468 116.792 291.801C116.528 292.128 116.386 292.522 116.367 292.982H114.173C114.197 292.17 114.437 291.456 114.892 290.839C115.352 290.223 115.958 289.741 116.711 289.394C117.465 289.047 118.301 288.873 119.221 288.873C120.185 288.873 121.016 289.061 121.716 289.438C122.42 289.81 122.963 290.306 123.345 290.927C123.731 291.549 123.922 292.229 123.917 292.967C123.922 293.809 123.687 294.523 123.212 295.11C122.743 295.697 122.117 296.091 121.334 296.291V296.408C122.332 296.56 123.105 296.956 123.653 297.597C124.205 298.238 124.479 299.033 124.475 299.982C124.479 300.809 124.249 301.55 123.785 302.205C123.325 302.861 122.696 303.377 121.899 303.753C121.102 304.125 120.189 304.311 119.162 304.311ZM134.363 304.105L131.046 292.835H133.313L135.522 301.112H135.632L137.848 292.835H140.115L142.316 301.075H142.426L144.62 292.835H146.888L143.578 304.105H141.34L139.051 295.968H138.882L136.593 304.105H134.363ZM152.961 304.333C151.904 304.333 150.982 304.091 150.194 303.607C149.407 303.122 148.795 302.445 148.36 301.574C147.925 300.703 147.707 299.686 147.707 298.522C147.707 297.353 147.925 296.33 148.36 295.455C148.795 294.579 149.407 293.899 150.194 293.415C150.982 292.931 151.904 292.688 152.961 292.688C154.017 292.688 154.939 292.931 155.727 293.415C156.514 293.899 157.126 294.579 157.561 295.455C157.997 296.33 158.214 297.353 158.214 298.522C158.214 299.686 157.997 300.703 157.561 301.574C157.126 302.445 156.514 303.122 155.727 303.607C154.939 304.091 154.017 304.333 152.961 304.333ZM152.968 302.491C153.653 302.491 154.22 302.31 154.67 301.948C155.12 301.586 155.453 301.104 155.668 300.503C155.888 299.901 155.998 299.238 155.998 298.514C155.998 297.795 155.888 297.135 155.668 296.533C155.453 295.927 155.12 295.44 154.67 295.073C154.22 294.706 153.653 294.523 152.968 294.523C152.278 294.523 151.706 294.706 151.251 295.073C150.801 295.44 150.466 295.927 150.246 296.533C150.031 297.135 149.923 297.795 149.923 298.514C149.923 299.238 150.031 299.901 150.246 300.503C150.466 301.104 150.801 301.586 151.251 301.948C151.706 302.31 152.278 302.491 152.968 302.491ZM160.25 304.105V292.835H162.37V294.625H162.488C162.693 294.019 163.055 293.542 163.574 293.195C164.097 292.842 164.689 292.666 165.349 292.666C165.486 292.666 165.648 292.671 165.834 292.681C166.024 292.691 166.174 292.703 166.281 292.718V294.816C166.193 294.792 166.037 294.765 165.812 294.736C165.587 294.701 165.362 294.684 165.137 294.684C164.618 294.684 164.156 294.794 163.75 295.014C163.349 295.23 163.031 295.53 162.796 295.917C162.561 296.298 162.444 296.734 162.444 297.223V304.105H160.25ZM169.784 300.283L169.77 297.604H170.151L174.642 292.835H177.269L172.147 298.265H171.802L169.784 300.283ZM167.767 304.105V289.078H169.96V304.105H167.767ZM174.884 304.105L170.848 298.749L172.36 297.216L177.577 304.105H174.884ZM183.138 304.333C182.081 304.333 181.159 304.091 180.372 303.607C179.584 303.122 178.973 302.445 178.537 301.574C178.102 300.703 177.884 299.686 177.884 298.522C177.884 297.353 178.102 296.33 178.537 295.455C178.973 294.579 179.584 293.899 180.372 293.415C181.159 292.931 182.081 292.688 183.138 292.688C184.195 292.688 185.117 292.931 185.904 293.415C186.692 293.899 187.303 294.579 187.739 295.455C188.174 296.33 188.392 297.353 188.392 298.522C188.392 299.686 188.174 300.703 187.739 301.574C187.303 302.445 186.692 303.122 185.904 303.607C185.117 304.091 184.195 304.333 183.138 304.333ZM183.145 302.491C183.83 302.491 184.398 302.31 184.848 301.948C185.298 301.586 185.63 301.104 185.845 300.503C186.066 299.901 186.176 299.238 186.176 298.514C186.176 297.795 186.066 297.135 185.845 296.533C185.63 295.927 185.298 295.44 184.848 295.073C184.398 294.706 183.83 294.523 183.145 294.523C182.456 294.523 181.883 294.706 181.428 295.073C180.978 295.44 180.643 295.927 180.423 296.533C180.208 297.135 180.1 297.795 180.1 298.514C180.1 299.238 180.208 299.901 180.423 300.503C180.643 301.104 180.978 301.586 181.428 301.948C181.883 302.31 182.456 302.491 183.145 302.491ZM197.567 299.432V292.835H199.768V304.105H197.611V302.154H197.493C197.234 302.755 196.818 303.257 196.246 303.658C195.678 304.054 194.972 304.252 194.125 304.252C193.401 304.252 192.761 304.093 192.203 303.775C191.65 303.452 191.215 302.976 190.897 302.344C190.584 301.713 190.427 300.933 190.427 300.004V292.835H192.621V299.74C192.621 300.508 192.834 301.119 193.259 301.574C193.685 302.029 194.238 302.256 194.918 302.256C195.329 302.256 195.737 302.154 196.143 301.948C196.554 301.743 196.894 301.432 197.163 301.016C197.437 300.601 197.571 300.072 197.567 299.432ZM207.563 292.835V294.596H201.407V292.835H207.563ZM203.058 290.135H205.252V300.796C205.252 301.222 205.316 301.542 205.443 301.757C205.57 301.968 205.734 302.112 205.934 302.19C206.14 302.264 206.362 302.3 206.602 302.3C206.778 302.3 206.932 302.288 207.064 302.264C207.196 302.239 207.299 302.22 207.373 302.205L207.769 304.017C207.642 304.066 207.461 304.115 207.226 304.164C206.991 304.218 206.698 304.247 206.345 304.252C205.768 304.262 205.23 304.159 204.731 303.944C204.232 303.729 203.829 303.396 203.52 302.946C203.212 302.496 203.058 301.931 203.058 301.251V290.135ZM57.8779 329.333C56.7871 329.333 55.8479 329.086 55.0603 328.592C54.2777 328.093 53.676 327.406 53.2553 326.53C52.8346 325.654 52.6243 324.652 52.6243 323.522C52.6243 322.377 52.8395 321.367 53.27 320.491C53.7005 319.611 54.307 318.924 55.0897 318.429C55.8723 317.935 56.7944 317.688 57.8559 317.688C58.7119 317.688 59.475 317.847 60.1452 318.165C60.8153 318.478 61.3559 318.919 61.7668 319.486C62.1826 320.054 62.4296 320.716 62.5078 321.475H60.3726C60.2553 320.946 59.9862 320.491 59.5655 320.11C59.1497 319.728 58.5921 319.537 57.8926 319.537C57.2811 319.537 56.7455 319.699 56.2857 320.022C55.8308 320.34 55.4761 320.795 55.2218 321.386C54.9674 321.973 54.8402 322.668 54.8402 323.47C54.8402 324.292 54.965 325.001 55.2144 325.598C55.4639 326.195 55.8161 326.657 56.271 326.985C56.7308 327.313 57.2714 327.477 57.8926 327.477C58.3084 327.477 58.685 327.401 59.0226 327.249C59.365 327.093 59.6511 326.87 59.881 326.581C60.1158 326.293 60.2797 325.945 60.3726 325.539H62.5078C62.4296 326.268 62.1923 326.919 61.7961 327.491C61.3999 328.064 60.8692 328.514 60.2039 328.841C59.5435 329.169 58.7682 329.333 57.8779 329.333ZM66.6346 314.078V329.105H64.4408V314.078H66.6346ZM72.4527 329.355C71.7386 329.355 71.0929 329.223 70.5156 328.959C69.9384 328.69 69.4811 328.301 69.1435 327.792C68.8109 327.283 68.6446 326.66 68.6446 325.921C68.6446 325.285 68.7669 324.762 69.0115 324.351C69.256 323.94 69.5862 323.615 70.002 323.375C70.4178 323.135 70.8825 322.954 71.3961 322.832C71.9098 322.71 72.4332 322.617 72.9664 322.553C73.6414 322.475 74.1893 322.411 74.6099 322.362C75.0306 322.309 75.3363 322.223 75.5271 322.106C75.7179 321.988 75.8133 321.797 75.8133 321.533V321.482C75.8133 320.841 75.6323 320.345 75.2703 319.992C74.9132 319.64 74.38 319.464 73.6707 319.464C72.9321 319.464 72.35 319.628 71.9244 319.956C71.5038 320.279 71.2127 320.638 71.0513 321.034L68.9895 320.565C69.234 319.88 69.5911 319.327 70.0607 318.906C70.5352 318.481 71.0806 318.173 71.697 317.982C72.3133 317.786 72.9615 317.688 73.6414 317.688C74.0914 317.688 74.5684 317.742 75.0722 317.85C75.5809 317.953 76.0554 318.143 76.4957 318.422C76.9408 318.701 77.3052 319.1 77.5889 319.618C77.8727 320.132 78.0145 320.799 78.0145 321.621V329.105H75.872V327.565H75.7839C75.6421 327.848 75.4293 328.127 75.1456 328.401C74.8619 328.675 74.4974 328.902 74.0523 329.083C73.6072 329.264 73.074 329.355 72.4527 329.355ZM72.9297 327.594C73.5362 327.594 74.0547 327.474 74.4852 327.234C74.9206 326.995 75.2507 326.682 75.4758 326.295C75.7057 325.904 75.8206 325.486 75.8206 325.041V323.588C75.7424 323.666 75.5907 323.739 75.3657 323.808C75.1456 323.871 74.8937 323.928 74.6099 323.977C74.3262 324.021 74.0498 324.062 73.7808 324.101C73.5118 324.136 73.2868 324.165 73.1058 324.189C72.6802 324.243 72.2913 324.334 71.9391 324.461C71.5918 324.588 71.313 324.771 71.1026 325.011C70.8972 325.246 70.7945 325.559 70.7945 325.95C70.7945 326.493 70.995 326.904 71.3961 327.183C71.7973 327.457 72.3084 327.594 72.9297 327.594ZM88.9688 320.587L86.9804 320.939C86.8972 320.685 86.7651 320.442 86.5841 320.212C86.408 319.983 86.1684 319.794 85.8651 319.647C85.5618 319.501 85.1827 319.427 84.7278 319.427C84.1065 319.427 83.588 319.567 83.1722 319.846C82.7564 320.12 82.5485 320.474 82.5485 320.91C82.5485 321.286 82.688 321.589 82.9668 321.819C83.2456 322.049 83.6956 322.238 84.3169 322.384L86.1072 322.795C87.1442 323.035 87.9171 323.404 88.4258 323.903C88.9346 324.402 89.1889 325.05 89.1889 325.848C89.1889 326.523 88.9933 327.124 88.6019 327.653C88.2155 328.176 87.675 328.587 86.9804 328.885C86.2906 329.184 85.4909 329.333 84.581 329.333C83.319 329.333 82.2893 329.064 81.492 328.526C80.6946 327.983 80.2055 327.212 80.0245 326.215L82.145 325.892C82.2771 326.444 82.5485 326.863 82.9594 327.146C83.3703 327.425 83.906 327.565 84.5663 327.565C85.2854 327.565 85.8602 327.415 86.2906 327.117C86.7211 326.814 86.9363 326.444 86.9363 326.009C86.9363 325.657 86.8043 325.361 86.5401 325.121C86.2809 324.882 85.8822 324.701 85.3441 324.578L83.4364 324.16C82.3847 323.92 81.6069 323.539 81.1031 323.015C80.6041 322.492 80.3546 321.829 80.3546 321.027C80.3546 320.362 80.5405 319.78 80.9123 319.281C81.2841 318.782 81.7977 318.393 82.4532 318.114C83.1086 317.83 83.8595 317.688 84.7058 317.688C85.9238 317.688 86.8825 317.953 87.582 318.481C88.2815 319.004 88.7438 319.706 88.9688 320.587ZM99.6333 320.587L97.6448 320.939C97.5617 320.685 97.4296 320.442 97.2486 320.212C97.0725 319.983 96.8328 319.794 96.5295 319.647C96.2263 319.501 95.8472 319.427 95.3922 319.427C94.771 319.427 94.2525 319.567 93.8367 319.846C93.4209 320.12 93.213 320.474 93.213 320.91C93.213 321.286 93.3524 321.589 93.6312 321.819C93.9101 322.049 94.3601 322.238 94.9813 322.384L96.7717 322.795C97.8087 323.035 98.5816 323.404 99.0903 323.903C99.599 324.402 99.8534 325.05 99.8534 325.848C99.8534 326.523 99.6577 327.124 99.2664 327.653C98.88 328.176 98.3394 328.587 97.6448 328.885C96.9551 329.184 96.1553 329.333 95.2455 329.333C93.9834 329.333 92.9538 329.064 92.1564 328.526C91.3591 327.983 90.8699 327.212 90.6889 326.215L92.8094 325.892C92.9415 326.444 93.213 326.863 93.6239 327.146C94.0348 327.425 94.5704 327.565 95.2308 327.565C95.9499 327.565 96.5246 327.415 96.9551 327.117C97.3856 326.814 97.6008 326.444 97.6008 326.009C97.6008 325.657 97.4687 325.361 97.2046 325.121C96.9453 324.882 96.5467 324.701 96.0086 324.578L94.1008 324.16C93.0491 323.92 92.2714 323.539 91.7675 323.015C91.2686 322.492 91.0191 321.829 91.0191 321.027C91.0191 320.362 91.205 319.78 91.5768 319.281C91.9485 318.782 92.4621 318.393 93.1176 318.114C93.7731 317.83 94.524 317.688 95.3702 317.688C96.5882 317.688 97.547 317.953 98.2465 318.481C98.946 319.004 99.4083 319.706 99.6333 320.587ZM106.907 329.105V317.835H109.101V329.105H106.907ZM108.015 316.096C107.634 316.096 107.306 315.969 107.032 315.715C106.763 315.455 106.629 315.147 106.629 314.79C106.629 314.428 106.763 314.12 107.032 313.866C107.306 313.606 107.634 313.477 108.015 313.477C108.397 313.477 108.722 313.606 108.991 313.866C109.265 314.12 109.402 314.428 109.402 314.79C109.402 315.147 109.265 315.455 108.991 315.715C108.722 315.969 108.397 316.096 108.015 316.096ZM113.833 322.414V329.105H111.639V317.835H113.745V319.67H113.885C114.144 319.073 114.55 318.593 115.103 318.231C115.66 317.869 116.362 317.688 117.209 317.688C117.977 317.688 118.649 317.85 119.226 318.173C119.804 318.491 120.251 318.965 120.569 319.596C120.887 320.227 121.046 321.007 121.046 321.937V329.105H118.852V322.201C118.852 321.384 118.639 320.746 118.214 320.286C117.788 319.821 117.204 319.589 116.46 319.589C115.951 319.589 115.499 319.699 115.103 319.919C114.711 320.139 114.401 320.462 114.171 320.888C113.946 321.308 113.833 321.817 113.833 322.414ZM133.377 329.333C132.321 329.333 131.399 329.091 130.611 328.607C129.824 328.122 129.212 327.445 128.777 326.574C128.342 325.703 128.124 324.686 128.124 323.522C128.124 322.353 128.342 321.33 128.777 320.455C129.212 319.579 129.824 318.899 130.611 318.415C131.399 317.931 132.321 317.688 133.377 317.688C134.434 317.688 135.356 317.931 136.144 318.415C136.931 318.899 137.543 319.579 137.978 320.455C138.413 321.33 138.631 322.353 138.631 323.522C138.631 324.686 138.413 325.703 137.978 326.574C137.543 327.445 136.931 328.122 136.144 328.607C135.356 329.091 134.434 329.333 133.377 329.333ZM133.385 327.491C134.07 327.491 134.637 327.31 135.087 326.948C135.537 326.586 135.87 326.104 136.085 325.503C136.305 324.901 136.415 324.238 136.415 323.514C136.415 322.795 136.305 322.135 136.085 321.533C135.87 320.927 135.537 320.44 135.087 320.073C134.637 319.706 134.07 319.523 133.385 319.523C132.695 319.523 132.123 319.706 131.668 320.073C131.218 320.44 130.883 320.927 130.663 321.533C130.447 322.135 130.34 322.795 130.34 323.514C130.34 324.238 130.447 324.901 130.663 325.503C130.883 326.104 131.218 326.586 131.668 326.948C132.123 327.31 132.695 327.491 133.385 327.491ZM142.861 322.414V329.105H140.667V317.835H142.773V319.67H142.912C143.171 319.073 143.577 318.593 144.13 318.231C144.688 317.869 145.39 317.688 146.236 317.688C147.004 317.688 147.676 317.85 148.254 318.173C148.831 318.491 149.278 318.965 149.596 319.596C149.914 320.227 150.073 321.007 150.073 321.937V329.105H147.879V322.201C147.879 321.384 147.667 320.746 147.241 320.286C146.815 319.821 146.231 319.589 145.487 319.589C144.979 319.589 144.526 319.699 144.13 319.919C143.739 320.139 143.428 320.462 143.198 320.888C142.973 321.308 142.861 321.817 142.861 322.414ZM157.46 329.333C156.349 329.333 155.393 329.096 154.591 328.621C153.793 328.142 153.177 327.469 152.742 326.603C152.311 325.733 152.096 324.713 152.096 323.544C152.096 322.389 152.311 321.372 152.742 320.491C153.177 319.611 153.784 318.924 154.561 318.429C155.344 317.935 156.259 317.688 157.306 317.688C157.942 317.688 158.558 317.794 159.155 318.004C159.752 318.214 160.287 318.544 160.762 318.994C161.236 319.444 161.61 320.029 161.884 320.748C162.158 321.462 162.295 322.331 162.295 323.353V324.131H153.336V322.487H160.145C160.145 321.91 160.028 321.399 159.793 320.954C159.558 320.504 159.228 320.149 158.803 319.89C158.382 319.63 157.888 319.501 157.32 319.501C156.704 319.501 156.166 319.652 155.706 319.956C155.251 320.254 154.899 320.645 154.65 321.13C154.405 321.609 154.283 322.13 154.283 322.693V323.977C154.283 324.73 154.415 325.371 154.679 325.899C154.948 326.427 155.322 326.831 155.802 327.11C156.281 327.384 156.841 327.521 157.482 327.521C157.898 327.521 158.277 327.462 158.619 327.344C158.962 327.222 159.257 327.041 159.507 326.802C159.756 326.562 159.947 326.266 160.079 325.914L162.156 326.288C161.989 326.899 161.691 327.435 161.261 327.895C160.835 328.35 160.299 328.704 159.654 328.959C159.013 329.208 158.282 329.333 157.46 329.333ZM169.371 329.105V317.835H171.477V319.67H171.616C171.851 319.048 172.235 318.564 172.768 318.217C173.302 317.864 173.94 317.688 174.683 317.688C175.437 317.688 176.068 317.864 176.576 318.217C177.09 318.569 177.469 319.053 177.714 319.67H177.831C178.1 319.068 178.528 318.588 179.115 318.231C179.702 317.869 180.402 317.688 181.214 317.688C182.236 317.688 183.07 318.009 183.716 318.65C184.366 319.29 184.692 320.257 184.692 321.548V329.105H182.498V321.753C182.498 320.99 182.29 320.437 181.874 320.095C181.458 319.753 180.962 319.581 180.385 319.581C179.67 319.581 179.115 319.802 178.719 320.242C178.323 320.677 178.125 321.237 178.125 321.922V329.105H175.938V321.614C175.938 321.002 175.747 320.511 175.366 320.139C174.984 319.767 174.488 319.581 173.876 319.581C173.46 319.581 173.077 319.692 172.724 319.912C172.377 320.127 172.096 320.428 171.88 320.814C171.67 321.201 171.565 321.648 171.565 322.157V329.105H169.371ZM191.966 329.333C190.91 329.333 189.988 329.091 189.2 328.607C188.412 328.122 187.801 327.445 187.366 326.574C186.93 325.703 186.713 324.686 186.713 323.522C186.713 322.353 186.93 321.33 187.366 320.455C187.801 319.579 188.412 318.899 189.2 318.415C189.988 317.931 190.91 317.688 191.966 317.688C193.023 317.688 193.945 317.931 194.732 318.415C195.52 318.899 196.131 319.579 196.567 320.455C197.002 321.33 197.22 322.353 197.22 323.522C197.22 324.686 197.002 325.703 196.567 326.574C196.131 327.445 195.52 328.122 194.732 328.607C193.945 329.091 193.023 329.333 191.966 329.333ZM191.974 327.491C192.658 327.491 193.226 327.31 193.676 326.948C194.126 326.586 194.459 326.104 194.674 325.503C194.894 324.901 195.004 324.238 195.004 323.514C195.004 322.795 194.894 322.135 194.674 321.533C194.459 320.927 194.126 320.44 193.676 320.073C193.226 319.706 192.658 319.523 191.974 319.523C191.284 319.523 190.712 319.706 190.257 320.073C189.807 320.44 189.472 320.927 189.251 321.533C189.036 322.135 188.929 322.795 188.929 323.514C188.929 324.238 189.036 324.901 189.251 325.503C189.472 326.104 189.807 326.586 190.257 326.948C190.712 327.31 191.284 327.491 191.974 327.491ZM201.449 322.414V329.105H199.255V317.835H201.361V319.67H201.501C201.76 319.073 202.166 318.593 202.719 318.231C203.276 317.869 203.978 317.688 204.825 317.688C205.593 317.688 206.265 317.85 206.842 318.173C207.42 318.491 207.867 318.965 208.185 319.596C208.503 320.227 208.662 321.007 208.662 321.937V329.105H206.468V322.201C206.468 321.384 206.255 320.746 205.83 320.286C205.404 319.821 204.82 319.589 204.076 319.589C203.567 319.589 203.115 319.699 202.719 319.919C202.327 320.139 202.017 320.462 201.787 320.888C201.562 321.308 201.449 321.817 201.449 322.414ZM216.452 317.835V319.596H210.296V317.835H216.452ZM211.947 315.135H214.141V325.796C214.141 326.222 214.204 326.542 214.332 326.757C214.459 326.968 214.623 327.112 214.823 327.19C215.029 327.264 215.251 327.3 215.491 327.3C215.667 327.3 215.821 327.288 215.953 327.264C216.085 327.239 216.188 327.22 216.261 327.205L216.658 329.017C216.53 329.066 216.349 329.115 216.115 329.164C215.88 329.218 215.586 329.247 215.234 329.252C214.657 329.262 214.119 329.159 213.62 328.944C213.121 328.729 212.717 328.396 212.409 327.946C212.101 327.496 211.947 326.931 211.947 326.251V315.135ZM220.902 322.414V329.105H218.708V314.078H220.872V319.67H221.012C221.276 319.063 221.68 318.581 222.223 318.224C222.765 317.867 223.475 317.688 224.35 317.688C225.123 317.688 225.798 317.847 226.376 318.165C226.958 318.483 227.408 318.958 227.726 319.589C228.048 320.215 228.21 320.998 228.21 321.937V329.105H226.016V322.201C226.016 321.374 225.803 320.733 225.378 320.279C224.952 319.819 224.36 319.589 223.602 319.589C223.083 319.589 222.619 319.699 222.208 319.919C221.802 320.139 221.481 320.462 221.247 320.888C221.017 321.308 220.902 321.817 220.902 322.414Z" fill="white"/>
<path d="M338.345 294.436C338.345 310.127 325.625 322.847 309.934 322.847C294.243 322.847 281.523 310.127 281.523 294.436C281.523 278.745 294.243 266.025 309.934 266.025C325.625 266.025 338.345 278.745 338.345 294.436ZM288.893 294.436C288.893 306.057 298.313 315.477 309.934 315.477C321.555 315.477 330.975 306.057 330.975 294.436C330.975 282.815 321.555 273.395 309.934 273.395C298.313 273.395 288.893 282.815 288.893 294.436Z" fill="#414141"/>
<path d="M309.934 266.025C314.219 266.025 318.448 266.995 322.305 268.86C326.163 270.726 329.548 273.44 332.208 276.8C334.868 280.159 336.733 284.076 337.665 288.259C338.597 292.441 338.57 296.78 337.588 300.951C336.605 305.121 334.692 309.016 331.991 312.342C329.291 315.669 325.873 318.342 321.993 320.16C318.113 321.979 313.872 322.897 309.588 322.844C305.303 322.792 301.086 321.772 297.252 319.859L300.542 313.264C303.381 314.681 306.504 315.437 309.678 315.475C312.851 315.514 315.992 314.835 318.865 313.488C321.738 312.141 324.27 310.161 326.27 307.698C328.27 305.234 329.687 302.35 330.414 299.261C331.142 296.172 331.162 292.959 330.472 289.861C329.782 286.764 328.4 283.862 326.43 281.374C324.46 278.887 321.953 276.876 319.096 275.495C316.24 274.113 313.107 273.395 309.934 273.395V266.025Z" fill="#BBF247"/>
<path d="M300.002 299.26C299.463 299.256 298.936 299.162 298.422 298.979C297.909 298.792 297.447 298.489 297.036 298.071C296.625 297.649 296.298 297.09 296.056 296.392C295.814 295.692 295.695 294.824 295.698 293.789C295.698 292.825 295.801 291.964 296.007 291.209C296.212 290.453 296.507 289.814 296.893 289.293C297.278 288.769 297.742 288.369 298.285 288.094C298.832 287.819 299.442 287.681 300.117 287.681C300.826 287.681 301.453 287.82 301.999 288.099C302.55 288.378 302.994 288.76 303.331 289.244C303.669 289.725 303.878 290.268 303.959 290.873H301.95C301.847 290.44 301.636 290.095 301.317 289.838C301.002 289.578 300.602 289.448 300.117 289.448C299.336 289.448 298.734 289.787 298.312 290.466C297.894 291.144 297.683 292.076 297.68 293.261H297.757C297.936 292.938 298.169 292.661 298.456 292.43C298.742 292.199 299.065 292.021 299.424 291.896C299.787 291.768 300.171 291.704 300.574 291.704C301.235 291.704 301.827 291.862 302.352 292.177C302.88 292.493 303.298 292.927 303.606 293.481C303.915 294.032 304.067 294.663 304.063 295.374C304.067 296.115 303.898 296.781 303.557 297.372C303.216 297.959 302.741 298.421 302.132 298.759C301.523 299.096 300.813 299.263 300.002 299.26ZM299.991 297.609C300.391 297.609 300.748 297.511 301.064 297.317C301.379 297.123 301.629 296.86 301.812 296.53C301.996 296.2 302.086 295.829 302.082 295.418C302.086 295.015 301.998 294.65 301.818 294.323C301.642 293.997 301.398 293.738 301.086 293.547C300.774 293.357 300.418 293.261 300.018 293.261C299.721 293.261 299.444 293.318 299.187 293.432C298.931 293.546 298.707 293.703 298.516 293.905C298.325 294.103 298.175 294.334 298.065 294.598C297.958 294.859 297.903 295.138 297.9 295.435C297.903 295.827 297.995 296.189 298.175 296.519C298.355 296.849 298.602 297.113 298.918 297.311C299.233 297.51 299.591 297.609 299.991 297.609ZM305.613 299.105V297.631L309.526 293.795C309.9 293.417 310.212 293.081 310.461 292.788C310.711 292.494 310.898 292.21 311.023 291.935C311.148 291.66 311.21 291.366 311.21 291.054C311.21 290.699 311.129 290.394 310.968 290.141C310.806 289.884 310.584 289.686 310.302 289.547C310.019 289.407 309.698 289.337 309.339 289.337C308.968 289.337 308.644 289.415 308.365 289.569C308.086 289.719 307.87 289.934 307.715 290.212C307.565 290.491 307.49 290.823 307.49 291.209H305.547C305.547 290.493 305.71 289.871 306.037 289.343C306.364 288.815 306.813 288.406 307.385 288.116C307.961 287.826 308.622 287.681 309.366 287.681C310.122 287.681 310.786 287.822 311.358 288.105C311.931 288.387 312.375 288.774 312.69 289.266C313.009 289.758 313.169 290.319 313.169 290.95C313.169 291.372 313.088 291.786 312.927 292.194C312.765 292.601 312.481 293.052 312.074 293.547C311.67 294.043 311.104 294.642 310.373 295.347L308.431 297.322V297.4H313.34V299.105H305.613ZM320.954 296.992V296.398C320.954 295.961 321.046 295.56 321.229 295.193C321.416 294.826 321.688 294.531 322.044 294.307C322.4 294.083 322.831 293.971 323.337 293.971C323.858 293.971 324.294 294.083 324.647 294.307C324.999 294.527 325.265 294.82 325.445 295.187C325.628 295.554 325.72 295.958 325.72 296.398V296.992C325.72 297.429 325.628 297.831 325.445 298.197C325.261 298.564 324.992 298.86 324.636 299.083C324.283 299.307 323.851 299.419 323.337 299.419C322.823 299.419 322.389 299.307 322.033 299.083C321.677 298.86 321.407 298.564 321.224 298.197C321.044 297.831 320.954 297.429 320.954 296.992ZM322.39 296.398V296.992C322.39 297.282 322.46 297.548 322.6 297.79C322.739 298.032 322.985 298.153 323.337 298.153C323.693 298.153 323.937 298.034 324.069 297.796C324.205 297.554 324.272 297.286 324.272 296.992V296.398C324.272 296.104 324.208 295.837 324.08 295.595C323.951 295.349 323.704 295.226 323.337 295.226C322.992 295.226 322.748 295.349 322.605 295.595C322.462 295.837 322.39 296.104 322.39 296.398ZM315.225 290.543V289.948C315.225 289.508 315.319 289.105 315.506 288.738C315.693 288.371 315.965 288.077 316.321 287.857C316.676 287.633 317.107 287.521 317.614 287.521C318.131 287.521 318.566 287.633 318.918 287.857C319.274 288.077 319.542 288.371 319.721 288.738C319.901 289.105 319.991 289.508 319.991 289.948V290.543C319.991 290.983 319.899 291.386 319.716 291.753C319.536 292.117 319.268 292.408 318.912 292.628C318.557 292.848 318.124 292.959 317.614 292.959C317.096 292.959 316.66 292.848 316.304 292.628C315.952 292.408 315.684 292.115 315.501 291.748C315.317 291.381 315.225 290.979 315.225 290.543ZM316.673 289.948V290.543C316.673 290.836 316.741 291.104 316.876 291.346C317.016 291.585 317.262 291.704 317.614 291.704C317.966 291.704 318.208 291.585 318.34 291.346C318.476 291.104 318.544 290.836 318.544 290.543V289.948C318.544 289.655 318.48 289.387 318.351 289.145C318.223 288.899 317.977 288.776 317.614 288.776C317.265 288.776 317.021 288.899 316.882 289.145C316.742 289.391 316.673 289.659 316.673 289.948ZM315.853 299.105L323.601 287.835H324.977L317.229 299.105H315.853Z" fill="white"/>
<path d="M51.6558 236.324H338.345" stroke="white" stroke-opacity="0.16" stroke-width="1.29139"/>
</svg>
