<svg width="100" height="34" viewBox="0 0 100 34" fill="none" xmlns="http://www.w3.org/2000/svg">
<path d="M21.8398 24.4263L8.10651 30.2129C6.67984 30.8129 5.43981 29.0396 6.49315 27.9063L16.9065 16.5996L22.3065 22.0929C23.0265 22.8129 22.7865 24.0396 21.8398 24.4263Z" fill="#BBF247"/>
<path d="M25.5602 6.02753L16.9069 16.6009L11.5069 11.1342C10.7869 10.4009 11.0268 9.1742 11.9735 8.78753L23.8935 3.78753C25.2802 3.20087 26.5202 4.86753 25.5602 6.02753Z" fill="#BBF247"/>
<path d="M50.166 11.7273V14.9091H40.7399V11.7273H50.166ZM42.8975 27V10.6236C42.8975 9.51657 43.113 8.59848 43.5438 7.86932C43.9813 7.14015 44.5779 6.59328 45.3336 6.22869C46.0893 5.86411 46.9477 5.68182 47.9089 5.68182C48.5585 5.68182 49.1518 5.73153 49.6887 5.83097C50.2323 5.9304 50.6366 6.01989 50.9018 6.09943L50.1461 9.28125C49.9804 9.22822 49.7749 9.1785 49.5296 9.1321C49.291 9.0857 49.0457 9.0625 48.7938 9.0625C48.1707 9.0625 47.7365 9.20833 47.4913 9.5C47.246 9.78504 47.1234 10.1861 47.1234 10.7031V27H42.8975ZM52.1937 27V11.7273H56.4295V27H52.1937ZM54.3215 9.75852C53.6918 9.75852 53.1516 9.54972 52.7008 9.1321C52.2567 8.70786 52.0346 8.20076 52.0346 7.61079C52.0346 7.02746 52.2567 6.52699 52.7008 6.10938C53.1516 5.68513 53.6918 5.47301 54.3215 5.47301C54.9513 5.47301 55.4882 5.68513 55.9323 6.10938C56.3831 6.52699 56.6085 7.02746 56.6085 7.61079C56.6085 8.20076 56.3831 8.70786 55.9323 9.1321C55.4882 9.54972 54.9513 9.75852 54.3215 9.75852ZM67.3862 11.7273V14.9091H58.1887V11.7273H67.3862ZM60.2768 8.06818H64.5126V22.3068C64.5126 22.6979 64.5723 23.0028 64.6916 23.2216C64.8109 23.4337 64.9766 23.5829 65.1887 23.669C65.4075 23.7552 65.6594 23.7983 65.9444 23.7983C66.1433 23.7983 66.3422 23.7817 66.541 23.7486C66.7399 23.7088 66.8923 23.679 66.9984 23.6591L67.6646 26.8111C67.4525 26.8774 67.1542 26.9536 66.7697 27.0398C66.3852 27.1326 65.9179 27.1889 65.3677 27.2088C64.3469 27.2486 63.452 27.1127 62.6831 26.8011C61.9208 26.4896 61.3275 26.0057 60.9032 25.3494C60.479 24.6932 60.2702 23.8646 60.2768 22.8636V8.06818ZM69.5059 27V24.4744L76.9831 15.2173V15.108H69.7644V11.7273H82.084V14.4815L75.0641 23.5099V23.6193H82.3425V27H69.5059ZM87.6366 32.7273C87.0996 32.7273 86.5958 32.6842 86.1252 32.598C85.6612 32.5185 85.2767 32.4157 84.9718 32.2898L85.9263 29.1278C86.4235 29.2803 86.8709 29.3632 87.2687 29.3764C87.673 29.3897 88.021 29.2969 88.3127 29.098C88.611 28.8991 88.8529 28.5611 89.0386 28.0838L89.2871 27.4375L83.8084 11.7273H88.263L91.4249 22.9432H91.584L94.7758 11.7273H99.2601L93.3241 28.6506C93.039 29.4725 92.6512 30.1884 92.1607 30.7983C91.6768 31.4148 91.0637 31.8887 90.3212 32.2202C89.5788 32.5582 88.6839 32.7273 87.6366 32.7273Z" fill="#BBF247"/>
</svg>
