<svg width="24" height="25" viewBox="0 0 24 25" fill="none" xmlns="http://www.w3.org/2000/svg">
<path d="M6.67 14.5H4C2.9 14.5 2 15.4 2 16.5V21.5C2 22.05 2.45 22.5 3 22.5H6.67C7.22 22.5 7.67 22.05 7.67 21.5V15.5C7.67 14.95 7.22 14.5 6.67 14.5Z" fill="#BBF247"/>
<path d="M13.3302 10.5H10.6602C9.56016 10.5 8.66016 11.4 8.66016 12.5V21.5C8.66016 22.05 9.11016 22.5 9.66016 22.5H14.3302C14.8802 22.5 15.3302 22.05 15.3302 21.5V12.5C15.3302 11.4 14.4402 10.5 13.3302 10.5Z" fill="#BBF247"/>
<path d="M20.0001 17.5H17.3301C16.7801 17.5 16.3301 17.95 16.3301 18.5V21.5C16.3301 22.05 16.7801 22.5 17.3301 22.5H21.0001C21.5501 22.5 22.0001 22.05 22.0001 21.5V19.5C22.0001 18.4 21.1001 17.5 20.0001 17.5Z" fill="#BBF247"/>
<path d="M15.0099 5.35047C15.3199 5.04047 15.4399 4.67047 15.3399 4.35047C15.2399 4.03047 14.9299 3.80047 14.4899 3.73047L13.5299 3.57047C13.4899 3.57047 13.3999 3.50047 13.3799 3.46047L12.8499 2.40047C12.4499 1.59047 11.5399 1.59047 11.1399 2.40047L10.6099 3.46047C10.5999 3.50047 10.5099 3.57047 10.4699 3.57047L9.50994 3.73047C9.06994 3.80047 8.76994 4.03047 8.65994 4.35047C8.55994 4.67047 8.67994 5.04047 8.98994 5.35047L9.72994 6.10047C9.76994 6.13047 9.79994 6.25047 9.78994 6.29047L9.57994 7.21047C9.41994 7.90047 9.67994 8.21047 9.84994 8.33047C10.0199 8.45047 10.3899 8.61047 10.9999 8.25047L11.8999 7.72047C11.9399 7.69047 12.0699 7.69047 12.1099 7.72047L12.9999 8.25047C13.2799 8.42047 13.5099 8.47047 13.6899 8.47047C13.8999 8.47047 14.0499 8.39047 14.1399 8.33047C14.3099 8.21047 14.5699 7.90047 14.4099 7.21047L14.1999 6.29047C14.1899 6.24047 14.2199 6.13047 14.2599 6.10047L15.0099 5.35047Z" fill="#BBF247"/>
</svg>
