<svg width="24" height="25" viewBox="0 0 24 25" fill="none" xmlns="http://www.w3.org/2000/svg">
<path d="M17.1802 5.75C15.4702 5.75 13.4302 6.4 13.4302 9.5V15.5C13.4302 18.6 15.4702 19.25 17.1802 19.25C18.8902 19.25 20.9302 18.6 20.9302 15.5V9.5C20.9302 6.4 18.8902 5.75 17.1802 5.75Z" fill="#BBF247"/>
<path d="M6.81982 5.75C5.10982 5.75 3.06982 6.4 3.06982 9.5V15.5C3.06982 18.6 5.10982 19.25 6.81982 19.25C8.52982 19.25 10.5698 18.6 10.5698 15.5V9.5C10.5698 6.4 8.52982 5.75 6.81982 5.75Z" fill="#BBF247"/>
<path d="M13.4298 11.75H10.5698V13.25H13.4298V11.75Z" fill="#BBF247"/>
<path d="M22.5 15.75C22.09 15.75 21.75 15.41 21.75 15V10C21.75 9.59 22.09 9.25 22.5 9.25C22.91 9.25 23.25 9.59 23.25 10V15C23.25 15.41 22.91 15.75 22.5 15.75Z" fill="#BBF247"/>
<path d="M1.5 15.75C1.09 15.75 0.75 15.41 0.75 15V10C0.75 9.59 1.09 9.25 1.5 9.25C1.91 9.25 2.25 9.59 2.25 10V15C2.25 15.41 1.91 15.75 1.5 15.75Z" fill="#BBF247"/>
</svg>
