<svg width="333" height="333" viewBox="0 0 333 333" fill="none" xmlns="http://www.w3.org/2000/svg">
<rect width="567.721" height="390" fill="#292D32"/>
<rect x="0.822785" y="0.822785" width="566.076" height="388.354" stroke="white" stroke-opacity="0.16" stroke-width="1.64557"/>
<g clip-path="url(#clip0_1309_3025)">
<rect width="130" height="130" transform="translate(39.4937 39.4941)" fill="white"/>
</g>
<path d="M39.4937 208.988H528.228" stroke="white" stroke-opacity="0.16" stroke-width="1.64557"/>
<path d="M52.9995 257.789H50.8116C50.7275 257.322 50.5709 256.91 50.3418 256.555C50.1127 256.2 49.8322 255.898 49.5003 255.651C49.1684 255.403 48.7967 255.216 48.3853 255.09C47.9786 254.963 47.5462 254.9 47.088 254.9C46.2606 254.9 45.5196 255.108 44.8651 255.524C44.2153 255.94 43.7011 256.551 43.3224 257.355C42.9484 258.159 42.7614 259.14 42.7614 260.3C42.7614 261.469 42.9484 262.455 43.3224 263.259C43.7011 264.063 44.2177 264.671 44.8721 265.082C45.5266 265.494 46.2629 265.699 47.081 265.699C47.5345 265.699 47.9646 265.639 48.3713 265.517C48.7827 265.391 49.1544 265.206 49.4863 264.963C49.8182 264.72 50.0987 264.423 50.3278 264.072C50.5615 263.717 50.7228 263.31 50.8116 262.852L52.9995 262.859C52.8826 263.565 52.6559 264.215 52.3193 264.809C51.9874 265.398 51.5596 265.907 51.036 266.337C50.5171 266.763 49.9234 267.092 49.2549 267.326C48.5864 267.56 47.8571 267.677 47.067 267.677C45.8235 267.677 44.7155 267.382 43.7431 266.793C42.7708 266.2 42.0041 265.351 41.4431 264.248C40.8868 263.144 40.6086 261.828 40.6086 260.3C40.6086 258.766 40.8891 257.45 41.4501 256.352C42.0111 255.249 42.7778 254.402 43.7502 253.813C44.7225 253.22 45.8282 252.923 47.067 252.923C47.829 252.923 48.5396 253.033 49.1988 253.252C49.8626 253.467 50.4587 253.785 50.9869 254.206C51.5152 254.622 51.9523 255.132 52.2982 255.735C52.6442 256.333 52.8779 257.018 52.9995 257.789ZM58.1636 267.719C57.4811 267.719 56.864 267.593 56.3123 267.34C55.7607 267.083 55.3236 266.711 55.001 266.225C54.6831 265.739 54.5242 265.143 54.5242 264.437C54.5242 263.829 54.641 263.329 54.8748 262.936C55.1085 262.544 55.4241 262.233 55.8215 262.004C56.2188 261.775 56.6629 261.602 57.1538 261.485C57.6447 261.368 58.1449 261.279 58.6545 261.218C59.2996 261.144 59.8232 261.083 60.2252 261.036C60.6273 260.985 60.9195 260.903 61.1018 260.791C61.2841 260.678 61.3753 260.496 61.3753 260.244V260.195C61.3753 259.582 61.2023 259.108 60.8563 258.771C60.5151 258.435 60.0055 258.266 59.3277 258.266C58.6217 258.266 58.0654 258.423 57.6587 258.736C57.2567 259.045 56.9785 259.388 56.8242 259.767L54.8538 259.318C55.0875 258.664 55.4288 258.135 55.8776 257.733C56.331 257.327 56.8523 257.032 57.4413 256.85C58.0304 256.663 58.6498 256.569 59.2996 256.569C59.7297 256.569 60.1855 256.621 60.667 256.723C61.1532 256.822 61.6067 257.004 62.0274 257.27C62.4528 257.537 62.8011 257.918 63.0723 258.413C63.3434 258.904 63.479 259.542 63.479 260.328V267.48H61.4314V266.008H61.3472C61.2116 266.279 61.0083 266.545 60.7371 266.807C60.466 267.069 60.1177 267.286 59.6923 267.459C59.2669 267.632 58.7573 267.719 58.1636 267.719ZM58.6194 266.036C59.1991 266.036 59.6946 265.921 60.106 265.692C60.5221 265.463 60.8376 265.164 61.0527 264.795C61.2724 264.421 61.3823 264.021 61.3823 263.596V262.207C61.3075 262.282 61.1626 262.352 60.9475 262.418C60.7371 262.478 60.4964 262.532 60.2252 262.579C59.9541 262.621 59.69 262.661 59.4328 262.698C59.1757 262.731 58.9607 262.759 58.7877 262.782C58.381 262.834 58.0093 262.92 57.6727 263.042C57.3408 263.163 57.0743 263.338 56.8733 263.568C56.677 263.792 56.5788 264.091 56.5788 264.465C56.5788 264.984 56.7705 265.377 57.1538 265.643C57.5372 265.905 58.0257 266.036 58.6194 266.036ZM67.9734 253.119V267.48H65.8767V253.119H67.9734ZM74.9362 267.698C73.9264 267.698 73.0452 267.466 72.2925 267.004C71.5399 266.541 70.9555 265.893 70.5394 265.061C70.1234 264.229 69.9153 263.257 69.9153 262.144C69.9153 261.027 70.1234 260.05 70.5394 259.213C70.9555 258.376 71.5399 257.726 72.2925 257.263C73.0452 256.801 73.9264 256.569 74.9362 256.569C75.946 256.569 76.8272 256.801 77.5799 257.263C78.3325 257.726 78.9169 258.376 79.333 259.213C79.749 260.05 79.9571 261.027 79.9571 262.144C79.9571 263.257 79.749 264.229 79.333 265.061C78.9169 265.893 78.3325 266.541 77.5799 267.004C76.8272 267.466 75.946 267.698 74.9362 267.698ZM74.9432 265.938C75.5977 265.938 76.14 265.765 76.5701 265.419C77.0002 265.073 77.3181 264.612 77.5238 264.037C77.7341 263.462 77.8393 262.829 77.8393 262.137C77.8393 261.45 77.7341 260.819 77.5238 260.244C77.3181 259.664 77.0002 259.199 76.5701 258.848C76.14 258.498 75.5977 258.322 74.9432 258.322C74.2841 258.322 73.7371 258.498 73.3023 258.848C72.8722 259.199 72.552 259.664 72.3416 260.244C72.1359 260.819 72.0331 261.45 72.0331 262.137C72.0331 262.829 72.1359 263.462 72.3416 264.037C72.552 264.612 72.8722 265.073 73.3023 265.419C73.7371 265.765 74.2841 265.938 74.9432 265.938ZM81.9025 267.48V256.709H83.9291V258.42H84.0413C84.2376 257.841 84.5836 257.385 85.0791 257.053C85.5793 256.716 86.145 256.548 86.7761 256.548C86.907 256.548 87.0613 256.553 87.2389 256.562C87.4212 256.572 87.5638 256.583 87.6667 256.597V258.603C87.5825 258.579 87.4329 258.554 87.2179 258.526C87.0028 258.493 86.7878 258.477 86.5727 258.477C86.0772 258.477 85.6354 258.582 85.2474 258.792C84.8641 258.998 84.5602 259.285 84.3358 259.655C84.1114 260.019 83.9992 260.435 83.9992 260.903V267.48H81.9025ZM89.0862 267.48V256.709H91.1829V267.48H89.0862ZM90.1451 255.048C89.7804 255.048 89.4672 254.926 89.2054 254.683C88.9483 254.435 88.8197 254.141 88.8197 253.799C88.8197 253.453 88.9483 253.159 89.2054 252.916C89.4672 252.668 89.7804 252.544 90.1451 252.544C90.5097 252.544 90.8206 252.668 91.0777 252.916C91.3395 253.159 91.4704 253.453 91.4704 253.799C91.4704 254.141 91.3395 254.435 91.0777 254.683C90.8206 254.926 90.5097 255.048 90.1451 255.048ZM98.2509 267.698C97.1897 267.698 96.2757 267.471 95.509 267.018C94.747 266.56 94.158 265.917 93.7419 265.089C93.3305 264.257 93.1248 263.282 93.1248 262.165C93.1248 261.062 93.3305 260.089 93.7419 259.248C94.158 258.406 94.7377 257.75 95.481 257.277C96.229 256.805 97.1032 256.569 98.1036 256.569C98.7113 256.569 99.3004 256.67 99.8707 256.871C100.441 257.072 100.953 257.387 101.406 257.817C101.86 258.248 102.218 258.806 102.479 259.493C102.741 260.176 102.872 261.006 102.872 261.983V262.726H94.3099V261.155H100.817C100.817 260.604 100.705 260.115 100.481 259.69C100.256 259.26 99.9408 258.921 99.5341 258.673C99.1321 258.425 98.6599 258.301 98.1176 258.301C97.5286 258.301 97.0143 258.446 96.5749 258.736C96.1401 259.021 95.8035 259.395 95.5651 259.858C95.3314 260.316 95.2145 260.814 95.2145 261.352V262.579C95.2145 263.299 95.3407 263.911 95.5932 264.416C95.8503 264.921 96.2079 265.307 96.6661 265.573C97.1242 265.835 97.6595 265.966 98.2719 265.966C98.6693 265.966 99.0316 265.91 99.3588 265.797C99.6861 265.681 99.9689 265.508 100.207 265.279C100.446 265.05 100.628 264.767 100.754 264.43L102.739 264.788C102.58 265.372 102.295 265.884 101.883 266.323C101.477 266.758 100.965 267.097 100.348 267.34C99.7351 267.579 99.0362 267.698 98.2509 267.698ZM112.875 259.339L110.974 259.676C110.895 259.433 110.769 259.201 110.596 258.981C110.427 258.762 110.198 258.582 109.908 258.442C109.619 258.301 109.256 258.231 108.822 258.231C108.228 258.231 107.732 258.364 107.335 258.631C106.938 258.893 106.739 259.232 106.739 259.648C106.739 260.008 106.872 260.297 107.139 260.517C107.405 260.737 107.835 260.917 108.429 261.057L110.14 261.45C111.131 261.679 111.87 262.032 112.356 262.509C112.842 262.986 113.085 263.605 113.085 264.367C113.085 265.012 112.898 265.587 112.524 266.092C112.155 266.592 111.638 266.985 110.974 267.27C110.315 267.555 109.551 267.698 108.681 267.698C107.475 267.698 106.491 267.441 105.729 266.926C104.967 266.408 104.5 265.671 104.327 264.718L106.353 264.409C106.479 264.937 106.739 265.337 107.132 265.608C107.524 265.875 108.036 266.008 108.667 266.008C109.354 266.008 109.904 265.865 110.315 265.58C110.727 265.29 110.932 264.937 110.932 264.521C110.932 264.185 110.806 263.902 110.554 263.673C110.306 263.444 109.925 263.271 109.411 263.154L107.587 262.754C106.582 262.525 105.839 262.16 105.357 261.66C104.881 261.16 104.642 260.527 104.642 259.76C104.642 259.124 104.82 258.568 105.175 258.091C105.53 257.614 106.021 257.242 106.648 256.976C107.274 256.705 107.992 256.569 108.8 256.569C109.965 256.569 110.881 256.822 111.549 257.327C112.218 257.827 112.66 258.498 112.875 259.339Z" fill="#757575"/>
<path d="M47.1357 292.689C47.1357 291.761 46.9777 291.139 46.6618 290.823C46.3656 290.487 45.9607 290.319 45.4473 290.319C44.9339 290.319 44.5192 290.477 44.2033 290.793C43.9071 291.089 43.759 291.612 43.759 292.363V294.584H40.6785V292.57C40.6785 290.892 41.0833 289.608 41.8929 288.72C42.7223 287.811 43.9367 287.357 45.5362 287.357C47.1357 287.357 48.3402 287.811 49.1499 288.72C49.9792 289.608 50.3939 290.892 50.3939 292.57C50.3939 293.656 50.2359 294.644 49.92 295.532C49.604 296.401 49.1992 297.201 48.7056 297.931C48.2316 298.642 47.7083 299.304 47.1357 299.916C46.5828 300.528 46.0595 301.111 45.5658 301.664C45.0919 302.216 44.6969 302.76 44.381 303.293C44.065 303.806 43.9071 304.349 43.9071 304.922C43.9071 305.119 43.9169 305.267 43.9367 305.366H50.0977V308.328H40.6785V305.781C40.6785 304.774 40.8364 303.885 41.1524 303.115C41.4683 302.345 41.8633 301.644 42.3372 301.012C42.8309 300.36 43.3542 299.758 43.9071 299.205C44.46 298.632 44.9734 298.03 45.4473 297.398C45.941 296.766 46.3458 296.075 46.6618 295.325C46.9777 294.574 47.1357 293.696 47.1357 292.689ZM51.83 308.328V305.188H54.9698V308.002L53.548 311.29H52.2151L53.0741 308.328H51.83ZM58.7477 290.201C59.3796 290.201 59.8931 290.131 60.288 289.993C60.7027 289.855 61.0384 289.667 61.2951 289.43C61.5518 289.193 61.7591 288.917 61.9171 288.601C62.0751 288.285 62.2133 287.949 62.3318 287.594H64.5237V308.328H61.2655V292.511H58.7477V290.201ZM70.8175 301.634V303.559C70.8175 304.31 70.9656 304.833 71.2618 305.129C71.5778 305.425 71.9925 305.573 72.5059 305.573C73.0193 305.573 73.4241 305.425 73.7203 305.129C74.0363 304.833 74.1942 304.31 74.1942 303.559V298.998C74.1942 298.247 74.0363 297.724 73.7203 297.428C73.4241 297.112 73.0193 296.954 72.5059 296.954C71.9925 296.954 71.5778 297.112 71.2618 297.428C70.9656 297.724 70.8175 298.247 70.8175 298.998V299.62H67.737L68.3294 287.594H76.9193V290.556H71.2618L70.9953 295.503C71.6074 294.495 72.5553 293.992 73.8388 293.992C75.0434 293.992 75.9418 294.397 76.5342 295.206C77.1464 296.016 77.4525 297.191 77.4525 298.731V303.352C77.4525 305.03 77.0378 306.324 76.2084 307.232C75.3988 308.121 74.1942 308.565 72.5947 308.565C70.9953 308.565 69.7808 308.121 68.9515 307.232C68.1418 306.324 67.737 305.03 67.737 303.352V301.634H70.8175ZM85.3162 292.689C85.3162 291.761 85.1582 291.139 84.8423 290.823C84.5461 290.487 84.1412 290.319 83.6278 290.319C83.1144 290.319 82.6997 290.477 82.3838 290.793C82.0876 291.089 81.9395 291.612 81.9395 292.363V293.696H78.859V292.57C78.859 290.892 79.2638 289.608 80.0734 288.72C80.9028 287.811 82.1172 287.357 83.7167 287.357C85.3162 287.357 86.5207 287.811 87.3304 288.72C88.1597 289.608 88.5744 290.892 88.5744 292.57V293.103C88.5744 295.315 87.8142 296.737 86.2937 297.369C87.123 297.724 87.7056 298.277 88.0412 299.027C88.3967 299.758 88.5744 300.656 88.5744 301.723V303.352C88.5744 305.03 88.1597 306.324 87.3304 307.232C86.5207 308.121 85.3162 308.565 83.7167 308.565C82.1172 308.565 80.9028 308.121 80.0734 307.232C79.2638 306.324 78.859 305.03 78.859 303.352V301.634H81.9395V303.559C81.9395 304.31 82.0876 304.843 82.3838 305.159C82.6997 305.455 83.1144 305.603 83.6278 305.603C84.1412 305.603 84.5461 305.445 84.8423 305.129C85.1582 304.813 85.3162 304.191 85.3162 303.263V301.634C85.3162 300.666 85.1483 299.985 84.8126 299.59C84.4769 299.195 83.9339 298.998 83.1835 298.998H82.0876V296.036H83.3612C83.9734 296.036 84.4473 295.878 84.783 295.562C85.1385 295.246 85.3162 294.673 85.3162 293.844V292.689Z" fill="white"/>
<path d="M100.146 305.339L100.118 303.291H100.454L105.167 298.495H107.214L102.193 303.572H102.053L100.146 305.339ZM98.6031 309.266V294.904H100.258V309.266H98.6031ZM105.447 309.266L101.24 303.936L102.418 302.786L107.551 309.266H105.447ZM112.881 309.49C111.872 309.49 111.002 309.252 110.273 308.775C109.544 308.298 108.983 307.641 108.59 306.804C108.197 305.967 108.001 305.011 108.001 303.936C108.001 302.842 108.202 301.877 108.604 301.04C109.011 300.199 109.576 299.542 110.301 299.07C111.03 298.593 111.881 298.354 112.853 298.354C113.611 298.354 114.293 298.495 114.901 298.775C115.509 299.056 116.007 299.448 116.395 299.953C116.783 300.458 117.023 301.047 117.117 301.72H115.462C115.336 301.229 115.055 300.795 114.621 300.416C114.19 300.033 113.611 299.841 112.881 299.841C112.236 299.841 111.671 300.009 111.185 300.346C110.703 300.678 110.327 301.148 110.056 301.755C109.789 302.358 109.656 303.067 109.656 303.88C109.656 304.712 109.787 305.437 110.049 306.054C110.315 306.671 110.689 307.15 111.17 307.491C111.657 307.833 112.227 308.003 112.881 308.003C113.312 308.003 113.702 307.929 114.053 307.779C114.403 307.629 114.7 307.414 114.943 307.134C115.186 306.853 115.359 306.517 115.462 306.124H117.117C117.023 306.76 116.792 307.333 116.423 307.842C116.058 308.347 115.574 308.749 114.971 309.048C114.373 309.343 113.676 309.49 112.881 309.49ZM122.311 309.518C121.628 309.518 121.009 309.39 120.453 309.132C119.896 308.871 119.455 308.494 119.127 308.003C118.8 307.508 118.636 306.909 118.636 306.208C118.636 305.591 118.758 305.091 119.001 304.708C119.244 304.32 119.569 304.016 119.976 303.796C120.382 303.576 120.831 303.413 121.322 303.305C121.818 303.193 122.316 303.104 122.816 303.039C123.47 302.954 124.001 302.891 124.408 302.849C124.819 302.803 125.118 302.725 125.305 302.618C125.497 302.51 125.593 302.323 125.593 302.057V302.001C125.593 301.309 125.403 300.771 125.025 300.388C124.651 300.005 124.083 299.813 123.321 299.813C122.531 299.813 121.911 299.986 121.462 300.332C121.014 300.678 120.698 301.047 120.516 301.44L118.945 300.879C119.225 300.224 119.599 299.715 120.067 299.35C120.539 298.981 121.053 298.724 121.61 298.579C122.171 298.429 122.722 298.354 123.265 298.354C123.611 298.354 124.008 298.396 124.457 298.481C124.91 298.56 125.347 298.726 125.768 298.978C126.193 299.231 126.546 299.612 126.827 300.121C127.107 300.631 127.248 301.314 127.248 302.169V309.266H125.593V307.807H125.509C125.396 308.041 125.209 308.291 124.948 308.557C124.686 308.824 124.337 309.051 123.903 309.238C123.468 309.425 122.937 309.518 122.311 309.518ZM122.563 308.031C123.218 308.031 123.769 307.903 124.218 307.646C124.672 307.389 125.013 307.057 125.242 306.65C125.476 306.243 125.593 305.816 125.593 305.367V303.852C125.523 303.936 125.368 304.013 125.13 304.083C124.896 304.149 124.625 304.207 124.316 304.259C124.013 304.306 123.716 304.348 123.426 304.385C123.141 304.418 122.909 304.446 122.732 304.469C122.302 304.525 121.899 304.616 121.526 304.743C121.156 304.864 120.857 305.049 120.628 305.297C120.404 305.54 120.291 305.872 120.291 306.292C120.291 306.867 120.504 307.302 120.929 307.597C121.36 307.887 121.904 308.031 122.563 308.031ZM131.528 294.904V309.266H129.873V294.904H131.528Z" fill="#757575"/>
<path d="M41.2327 347.113V332.752H46.2536C47.254 332.752 48.0791 332.925 48.7289 333.271C49.3788 333.612 49.8626 334.073 50.1805 334.652C50.4984 335.227 50.6573 335.865 50.6573 336.567C50.6573 337.184 50.5475 337.693 50.3278 338.095C50.1127 338.497 49.8275 338.815 49.4723 339.049C49.1216 339.283 48.7406 339.456 48.3292 339.568V339.708C48.7687 339.736 49.2105 339.891 49.6546 340.171C50.0987 340.452 50.4703 340.854 50.7695 341.377C51.0687 341.901 51.2183 342.541 51.2183 343.299C51.2183 344.018 51.0547 344.666 50.7275 345.241C50.4002 345.816 49.8836 346.272 49.1777 346.608C48.4718 346.945 47.5532 347.113 46.4219 347.113H41.2327ZM42.9718 345.571H46.4219C47.5579 345.571 48.3643 345.351 48.8411 344.911C49.3227 344.467 49.5634 343.93 49.5634 343.299C49.5634 342.812 49.4395 342.364 49.1918 341.952C48.944 341.536 48.591 341.204 48.1329 340.956C47.6748 340.704 47.1325 340.578 46.506 340.578H42.9718V345.571ZM42.9718 339.063H46.1975C46.7211 339.063 47.1932 338.96 47.614 338.755C48.0394 338.549 48.376 338.259 48.6238 337.885C48.8762 337.511 49.0024 337.072 49.0024 336.567C49.0024 335.936 48.7827 335.4 48.3433 334.961C47.9038 334.517 47.2073 334.295 46.2536 334.295H42.9718V339.063ZM60.2445 342.71V336.342H61.8994V347.113H60.2445V345.29H60.1323C59.8799 345.837 59.4872 346.302 58.9542 346.686C58.4213 347.064 57.7481 347.254 56.9347 347.254C56.2615 347.254 55.6631 347.106 55.1395 346.812C54.6159 346.513 54.2045 346.064 53.9053 345.465C53.6061 344.862 53.4565 344.103 53.4565 343.186V336.342H55.1115V343.074C55.1115 343.86 55.3312 344.486 55.7706 344.953C56.2147 345.421 56.7804 345.655 57.4676 345.655C57.879 345.655 58.2974 345.55 58.7228 345.339C59.1529 345.129 59.5129 344.806 59.8027 344.371C60.0973 343.937 60.2445 343.383 60.2445 342.71ZM64.5356 347.113V336.342H66.1344V337.969H66.2466C66.443 337.436 66.7983 337.004 67.3125 336.672C67.8267 336.34 68.4064 336.174 69.0516 336.174C69.1731 336.174 69.325 336.176 69.5074 336.181C69.6897 336.186 69.8276 336.193 69.9211 336.202V337.885C69.865 337.871 69.7364 337.85 69.5354 337.822C69.3391 337.789 69.131 337.773 68.9113 337.773C68.3877 337.773 67.9202 337.883 67.5088 338.102C67.1021 338.317 66.7796 338.617 66.5411 339C66.3074 339.379 66.1905 339.811 66.1905 340.297V347.113H64.5356ZM73.1428 340.634V347.113H71.4879V336.342H73.0867V338.025H73.2269C73.4794 337.478 73.8627 337.039 74.377 336.707C74.8912 336.37 75.555 336.202 76.3685 336.202C77.0978 336.202 77.7359 336.352 78.2829 336.651C78.8298 336.945 79.2552 337.394 79.5591 337.997C79.863 338.596 80.0149 339.353 80.0149 340.269V347.113H78.36V340.381C78.36 339.535 78.1403 338.876 77.7008 338.404C77.2614 337.927 76.6583 337.689 75.8916 337.689C75.3634 337.689 74.8912 337.803 74.4751 338.032C74.0637 338.261 73.7388 338.596 73.5004 339.035C73.262 339.474 73.1428 340.007 73.1428 340.634ZM87.3283 336.342V337.745H81.7465V336.342H87.3283ZM83.3733 333.762H85.0283V344.028C85.0283 344.495 85.0961 344.846 85.2316 345.08C85.3719 345.309 85.5495 345.463 85.7646 345.543C85.9843 345.617 86.2157 345.655 86.4588 345.655C86.6411 345.655 86.7907 345.645 86.9076 345.627C87.0245 345.603 87.118 345.585 87.1881 345.571L87.5247 347.057C87.4125 347.099 87.2559 347.141 87.0548 347.183C86.8538 347.23 86.599 347.254 86.2905 347.254C85.823 347.254 85.3649 347.153 84.9161 346.952C84.472 346.751 84.1026 346.445 83.8081 346.033C83.5183 345.622 83.3733 345.103 83.3733 344.477V333.762ZM99.2659 336.342V337.745H93.6841V336.342H99.2659ZM95.3109 333.762H96.9658V344.028C96.9658 344.495 97.0336 344.846 97.1692 345.08C97.3095 345.309 97.4871 345.463 97.7021 345.543C97.9219 345.617 98.1533 345.655 98.3964 345.655C98.5787 345.655 98.7283 345.645 98.8452 345.627C98.962 345.603 99.0555 345.585 99.1257 345.571L99.4622 347.057C99.3501 347.099 99.1934 347.141 98.9924 347.183C98.7914 347.23 98.5366 347.254 98.2281 347.254C97.7606 347.254 97.3024 347.153 96.8536 346.952C96.4095 346.751 96.0402 346.445 95.7457 346.033C95.4558 345.622 95.3109 345.103 95.3109 344.477V333.762ZM103.247 340.634V347.113H101.592V332.752H103.247V338.025H103.387C103.639 337.469 104.018 337.027 104.523 336.7C105.032 336.368 105.71 336.202 106.557 336.202C107.29 336.202 107.933 336.349 108.485 336.644C109.037 336.934 109.464 337.38 109.768 337.983C110.077 338.582 110.231 339.344 110.231 340.269V347.113H108.576V340.381C108.576 339.526 108.354 338.864 107.91 338.397C107.47 337.925 106.86 337.689 106.08 337.689C105.537 337.689 105.051 337.803 104.621 338.032C104.196 338.261 103.859 338.596 103.611 339.035C103.368 339.474 103.247 340.007 103.247 340.634ZM112.864 347.113V336.342H114.519V347.113H112.864ZM113.705 334.547C113.383 334.547 113.104 334.437 112.871 334.218C112.642 333.998 112.527 333.734 112.527 333.425C112.527 333.117 112.642 332.852 112.871 332.633C113.104 332.413 113.383 332.303 113.705 332.303C114.028 332.303 114.304 332.413 114.533 332.633C114.766 332.852 114.883 333.117 114.883 333.425C114.883 333.734 114.766 333.998 114.533 334.218C114.304 334.437 114.028 334.547 113.705 334.547ZM124.784 338.755L123.298 339.175C123.204 338.928 123.066 338.687 122.884 338.453C122.706 338.215 122.463 338.018 122.155 337.864C121.846 337.71 121.451 337.633 120.969 337.633C120.31 337.633 119.761 337.784 119.322 338.088C118.887 338.388 118.669 338.769 118.669 339.231C118.669 339.643 118.819 339.968 119.118 340.206C119.417 340.445 119.885 340.643 120.521 340.802L122.119 341.195C123.083 341.429 123.8 341.786 124.272 342.268C124.744 342.745 124.981 343.359 124.981 344.112C124.981 344.729 124.803 345.281 124.448 345.767C124.097 346.253 123.606 346.636 122.975 346.917C122.344 347.197 121.61 347.338 120.773 347.338C119.675 347.338 118.765 347.099 118.045 346.622C117.325 346.146 116.87 345.449 116.678 344.533L118.249 344.14C118.398 344.72 118.681 345.154 119.097 345.444C119.518 345.734 120.067 345.879 120.745 345.879C121.516 345.879 122.129 345.715 122.582 345.388C123.04 345.056 123.27 344.659 123.27 344.196C123.27 343.822 123.139 343.509 122.877 343.256C122.615 342.999 122.213 342.808 121.671 342.681L119.876 342.261C118.889 342.027 118.165 341.665 117.702 341.174C117.244 340.678 117.014 340.059 117.014 339.316C117.014 338.708 117.185 338.17 117.526 337.703C117.872 337.235 118.342 336.868 118.936 336.602C119.534 336.335 120.212 336.202 120.969 336.202C122.035 336.202 122.872 336.436 123.48 336.903C124.092 337.371 124.527 337.988 124.784 338.755ZM134.676 347.113L131.394 336.342H133.133L135.461 344.589H135.573L137.874 336.342H139.641L141.913 344.561H142.025L144.353 336.342H146.092L142.81 347.113H141.183L138.827 338.839H138.659L136.303 347.113H134.676ZM152.035 347.338C150.997 347.338 150.101 347.109 149.349 346.65C148.601 346.188 148.023 345.543 147.617 344.715C147.215 343.883 147.014 342.915 147.014 341.812C147.014 340.709 147.215 339.736 147.617 338.895C148.023 338.049 148.589 337.389 149.314 336.917C150.043 336.44 150.894 336.202 151.866 336.202C152.427 336.202 152.981 336.296 153.528 336.483C154.075 336.67 154.573 336.973 155.022 337.394C155.471 337.81 155.828 338.362 156.095 339.049C156.361 339.736 156.494 340.582 156.494 341.588V342.289H148.192V340.858H154.811C154.811 340.251 154.69 339.708 154.447 339.231C154.208 338.755 153.867 338.378 153.423 338.102C152.984 337.827 152.465 337.689 151.866 337.689C151.207 337.689 150.637 337.852 150.155 338.18C149.678 338.502 149.311 338.923 149.054 339.442C148.797 339.961 148.669 340.517 148.669 341.111V342.064C148.669 342.878 148.809 343.567 149.089 344.133C149.375 344.694 149.77 345.122 150.274 345.416C150.779 345.706 151.366 345.851 152.035 345.851C152.469 345.851 152.862 345.79 153.213 345.669C153.568 345.543 153.874 345.356 154.131 345.108C154.388 344.855 154.587 344.542 154.727 344.168L156.326 344.617C156.158 345.159 155.875 345.636 155.478 346.047C155.08 346.454 154.589 346.772 154.005 347.001C153.421 347.225 152.764 347.338 152.035 347.338ZM163.133 347.338C162.095 347.338 161.2 347.109 160.447 346.65C159.699 346.188 159.122 345.543 158.715 344.715C158.313 343.883 158.112 342.915 158.112 341.812C158.112 340.709 158.313 339.736 158.715 338.895C159.122 338.049 159.687 337.389 160.412 336.917C161.141 336.44 161.992 336.202 162.965 336.202C163.526 336.202 164.08 336.296 164.627 336.483C165.173 336.67 165.671 336.973 166.12 337.394C166.569 337.81 166.927 338.362 167.193 339.049C167.46 339.736 167.593 340.582 167.593 341.588V342.289H159.29V340.858H165.91C165.91 340.251 165.788 339.708 165.545 339.231C165.307 338.755 164.965 338.378 164.521 338.102C164.082 337.827 163.563 337.689 162.965 337.689C162.305 337.689 161.735 337.852 161.254 338.18C160.777 338.502 160.41 338.923 160.153 339.442C159.896 339.961 159.767 340.517 159.767 341.111V342.064C159.767 342.878 159.907 343.567 160.188 344.133C160.473 344.694 160.868 345.122 161.373 345.416C161.878 345.706 162.464 345.851 163.133 345.851C163.568 345.851 163.96 345.79 164.311 345.669C164.666 345.543 164.972 345.356 165.23 345.108C165.487 344.855 165.685 344.542 165.826 344.168L167.424 344.617C167.256 345.159 166.973 345.636 166.576 346.047C166.179 346.454 165.688 346.772 165.103 347.001C164.519 347.225 163.862 347.338 163.133 347.338ZM171.258 343.186L171.23 341.139H171.567L176.279 336.342H178.326L173.306 341.419H173.165L171.258 343.186ZM169.715 347.113V332.752H171.37V347.113H169.715ZM176.559 347.113L172.352 341.784L173.53 340.634L178.663 347.113H176.559Z" fill="#757575"/>
<path d="M229.604 254.984V253.119H240.719V254.984H236.238V267.48H234.078V254.984H229.604ZM242.611 267.48V256.709H244.708V267.48H242.611ZM243.67 255.048C243.306 255.048 242.992 254.926 242.731 254.683C242.473 254.435 242.345 254.141 242.345 253.799C242.345 253.453 242.473 253.159 242.731 252.916C242.992 252.668 243.306 252.544 243.67 252.544C244.035 252.544 244.346 252.668 244.603 252.916C244.865 253.159 244.996 253.453 244.996 253.799C244.996 254.141 244.865 254.435 244.603 254.683C244.346 254.926 244.035 255.048 243.67 255.048ZM247.134 267.48V256.709H249.146V258.463H249.28C249.504 257.869 249.871 257.406 250.381 257.074C250.89 256.738 251.5 256.569 252.211 256.569C252.931 256.569 253.534 256.738 254.02 257.074C254.511 257.411 254.873 257.874 255.107 258.463H255.219C255.476 257.888 255.885 257.429 256.446 257.088C257.007 256.742 257.676 256.569 258.452 256.569C259.429 256.569 260.226 256.875 260.843 257.488C261.465 258.1 261.776 259.024 261.776 260.258V267.48H259.679V260.454C259.679 259.725 259.48 259.197 259.083 258.869C258.686 258.542 258.211 258.378 257.659 258.378C256.977 258.378 256.446 258.589 256.068 259.01C255.689 259.426 255.5 259.961 255.5 260.615V267.48H253.41V260.321C253.41 259.736 253.228 259.267 252.863 258.911C252.498 258.556 252.024 258.378 251.439 258.378C251.042 258.378 250.675 258.484 250.339 258.694C250.007 258.9 249.738 259.187 249.532 259.556C249.331 259.926 249.231 260.354 249.231 260.84V267.48H247.134ZM268.833 267.698C267.772 267.698 266.858 267.471 266.091 267.018C265.329 266.56 264.74 265.917 264.324 265.089C263.913 264.257 263.707 263.282 263.707 262.165C263.707 261.062 263.913 260.089 264.324 259.248C264.74 258.406 265.32 257.75 266.063 257.277C266.811 256.805 267.685 256.569 268.686 256.569C269.294 256.569 269.883 256.67 270.453 256.871C271.023 257.072 271.535 257.387 271.989 257.817C272.442 258.248 272.8 258.806 273.062 259.493C273.323 260.176 273.454 261.006 273.454 261.983V262.726H264.892V261.155H271.4C271.4 260.604 271.287 260.115 271.063 259.69C270.839 259.26 270.523 258.921 270.116 258.673C269.714 258.425 269.242 258.301 268.7 258.301C268.111 258.301 267.597 258.446 267.157 258.736C266.722 259.021 266.386 259.395 266.147 259.858C265.914 260.316 265.797 260.814 265.797 261.352V262.579C265.797 263.299 265.923 263.911 266.175 264.416C266.433 264.921 266.79 265.307 267.248 265.573C267.706 265.835 268.242 265.966 268.854 265.966C269.252 265.966 269.614 265.91 269.941 265.797C270.268 265.681 270.551 265.508 270.79 265.279C271.028 265.05 271.21 264.767 271.337 264.43L273.321 264.788C273.162 265.372 272.877 265.884 272.466 266.323C272.059 266.758 271.547 267.097 270.93 267.34C270.317 267.579 269.619 267.698 268.833 267.698Z" fill="#757575"/>
<path d="M231.933 290.201C232.565 290.201 233.079 290.131 233.474 289.993C233.888 289.855 234.224 289.667 234.481 289.43C234.737 289.193 234.945 288.917 235.103 288.601C235.261 288.285 235.399 287.949 235.517 287.594H237.709V308.328H234.451V292.511H231.933V290.201ZM244.003 301.634V303.559C244.003 304.31 244.151 304.833 244.447 305.129C244.763 305.425 245.178 305.573 245.692 305.573C246.205 305.573 246.61 305.425 246.906 305.129C247.222 304.833 247.38 304.31 247.38 303.559V298.998C247.38 298.247 247.222 297.724 246.906 297.428C246.61 297.112 246.205 296.954 245.692 296.954C245.178 296.954 244.763 297.112 244.447 297.428C244.151 297.724 244.003 298.247 244.003 298.998V299.62H240.923L241.515 287.594H250.105V290.556H244.447L244.181 295.503C244.793 294.495 245.741 293.992 247.024 293.992C248.229 293.992 249.127 294.397 249.72 295.206C250.332 296.016 250.638 297.191 250.638 298.731V303.352C250.638 305.03 250.223 306.324 249.394 307.232C248.584 308.121 247.38 308.565 245.78 308.565C244.181 308.565 242.966 308.121 242.137 307.232C241.327 306.324 240.923 305.03 240.923 303.352V301.634H244.003ZM255.481 308.328H252.222V287.594H255.481V296.48H259.183V287.594H262.501V308.328H259.183V299.442H255.481V308.328ZM274.557 292.689C274.557 291.761 274.399 291.139 274.083 290.823C273.787 290.487 273.382 290.319 272.869 290.319C272.355 290.319 271.94 290.477 271.625 290.793C271.328 291.089 271.18 291.612 271.18 292.363V293.696H268.1V292.57C268.1 290.892 268.505 289.608 269.314 288.72C270.143 287.811 271.358 287.357 272.957 287.357C274.557 287.357 275.761 287.811 276.571 288.72C277.4 289.608 277.815 290.892 277.815 292.57V293.103C277.815 295.315 277.055 296.737 275.534 297.369C276.364 297.724 276.946 298.277 277.282 299.027C277.637 299.758 277.815 300.656 277.815 301.723V303.352C277.815 305.03 277.4 306.324 276.571 307.232C275.761 308.121 274.557 308.565 272.957 308.565C271.358 308.565 270.143 308.121 269.314 307.232C268.505 306.324 268.1 305.03 268.1 303.352V301.634H271.18V303.559C271.18 304.31 271.328 304.843 271.625 305.159C271.94 305.455 272.355 305.603 272.869 305.603C273.382 305.603 273.787 305.445 274.083 305.129C274.399 304.813 274.557 304.191 274.557 303.263V301.634C274.557 300.666 274.389 299.985 274.053 299.59C273.718 299.195 273.175 298.998 272.424 298.998H271.328V296.036H272.602C273.214 296.036 273.688 295.878 274.024 295.562C274.379 295.246 274.557 294.673 274.557 293.844V292.689ZM288.996 303.174C288.996 304.932 288.592 306.274 287.782 307.203C286.972 308.111 285.718 308.565 284.02 308.565C282.421 308.565 281.206 308.121 280.377 307.232C279.567 306.324 279.162 305.03 279.162 303.352V302.819H282.243V303.559C282.243 304.31 282.391 304.843 282.687 305.159C283.003 305.455 283.418 305.603 283.931 305.603C284.504 305.603 284.948 305.425 285.264 305.07C285.58 304.714 285.738 304.043 285.738 303.056V299.264C285.165 300.489 284.158 301.101 282.717 301.101C281.512 301.101 280.604 300.696 279.992 299.886C279.399 299.077 279.103 297.902 279.103 296.362V292.57C279.103 290.892 279.528 289.608 280.377 288.72C281.226 287.811 282.45 287.357 284.05 287.357C285.649 287.357 286.874 287.811 287.723 288.72C288.572 289.608 288.996 290.892 288.996 292.57V303.174ZM284.05 298.139C284.563 298.139 284.968 297.991 285.264 297.694C285.58 297.379 285.738 296.845 285.738 296.095V292.363C285.738 291.612 285.58 291.089 285.264 290.793C284.968 290.497 284.563 290.349 284.05 290.349C283.536 290.349 283.122 290.497 282.806 290.793C282.509 291.089 282.361 291.612 282.361 292.363V296.095C282.361 296.845 282.509 297.379 282.806 297.694C283.122 297.991 283.536 298.139 284.05 298.139ZM297.482 302.315L299.704 287.594H304.235V308.328H301.155V293.459L298.904 308.328H295.823L293.394 293.666V308.328H290.551V287.594H295.083L297.482 302.315ZM306.013 287.594H309.271V308.328H306.013V287.594ZM313.964 293.311V308.328H311.032V287.594H315.119L318.466 300.005V287.594H321.369V308.328H318.022L313.964 293.311Z" fill="white"/>
<path d="M233.082 347.113L229.155 332.752H230.922L233.924 344.449H234.064L237.121 332.752H239.085L242.142 344.449H242.282L245.284 332.752H247.051L243.124 347.113H241.329L238.159 335.669H238.047L234.877 347.113H233.082ZM251.971 347.338C250.999 347.338 250.146 347.106 249.412 346.643C248.682 346.181 248.112 345.533 247.701 344.701C247.294 343.869 247.091 342.897 247.091 341.784C247.091 340.662 247.294 339.683 247.701 338.846C248.112 338.009 248.682 337.359 249.412 336.896C250.146 336.433 250.999 336.202 251.971 336.202C252.944 336.202 253.794 336.433 254.524 336.896C255.258 337.359 255.828 338.009 256.235 338.846C256.646 339.683 256.852 340.662 256.852 341.784C256.852 342.897 256.646 343.869 256.235 344.701C255.828 345.533 255.258 346.181 254.524 346.643C253.794 347.106 252.944 347.338 251.971 347.338ZM251.971 345.851C252.71 345.851 253.318 345.662 253.794 345.283C254.271 344.904 254.624 344.407 254.853 343.789C255.082 343.172 255.197 342.504 255.197 341.784C255.197 341.064 255.082 340.393 254.853 339.771C254.624 339.15 254.271 338.647 253.794 338.264C253.318 337.88 252.71 337.689 251.971 337.689C251.232 337.689 250.625 337.88 250.148 338.264C249.671 338.647 249.318 339.15 249.089 339.771C248.86 340.393 248.745 341.064 248.745 341.784C248.745 342.504 248.86 343.172 249.089 343.789C249.318 344.407 249.671 344.904 250.148 345.283C250.625 345.662 251.232 345.851 251.971 345.851ZM258.983 347.113V336.342H260.582V337.969H260.694C260.89 337.436 261.246 337.004 261.76 336.672C262.274 336.34 262.854 336.174 263.499 336.174C263.621 336.174 263.772 336.176 263.955 336.181C264.137 336.186 264.275 336.193 264.369 336.202V337.885C264.312 337.871 264.184 337.85 263.983 337.822C263.786 337.789 263.578 337.773 263.359 337.773C262.835 337.773 262.368 337.883 261.956 338.102C261.55 338.317 261.227 338.617 260.989 339C260.755 339.379 260.638 339.811 260.638 340.297V347.113H258.983ZM267.478 343.186L267.45 341.139H267.787L272.499 336.342H274.546L269.526 341.419H269.385L267.478 343.186ZM265.935 347.113V332.752H267.59V347.113H265.935ZM272.779 347.113L268.572 341.784L269.75 340.634L274.883 347.113H272.779ZM280.214 347.338C279.241 347.338 278.388 347.106 277.654 346.643C276.925 346.181 276.355 345.533 275.943 344.701C275.536 343.869 275.333 342.897 275.333 341.784C275.333 340.662 275.536 339.683 275.943 338.846C276.355 338.009 276.925 337.359 277.654 336.896C278.388 336.433 279.241 336.202 280.214 336.202C281.186 336.202 282.037 336.433 282.766 336.896C283.5 337.359 284.071 338.009 284.477 338.846C284.889 339.683 285.094 340.662 285.094 341.784C285.094 342.897 284.889 343.869 284.477 344.701C284.071 345.533 283.5 346.181 282.766 346.643C282.037 347.106 281.186 347.338 280.214 347.338ZM280.214 345.851C280.952 345.851 281.56 345.662 282.037 345.283C282.514 344.904 282.867 344.407 283.096 343.789C283.325 343.172 283.439 342.504 283.439 341.784C283.439 341.064 283.325 340.393 283.096 339.771C282.867 339.15 282.514 338.647 282.037 338.264C281.56 337.88 280.952 337.689 280.214 337.689C279.475 337.689 278.867 337.88 278.391 338.264C277.914 338.647 277.561 339.15 277.332 339.771C277.103 340.393 276.988 341.064 276.988 341.784C276.988 342.504 277.103 343.172 277.332 343.789C277.561 344.407 277.914 344.904 278.391 345.283C278.867 345.662 279.475 345.851 280.214 345.851ZM294.014 342.71V336.342H295.668V347.113H294.014V345.29H293.901C293.649 345.837 293.256 346.302 292.723 346.686C292.19 347.064 291.517 347.254 290.704 347.254C290.031 347.254 289.432 347.106 288.909 346.812C288.385 346.513 287.974 346.064 287.674 345.465C287.375 344.862 287.226 344.103 287.226 343.186V336.342H288.881V343.074C288.881 343.86 289.1 344.486 289.54 344.953C289.984 345.421 290.549 345.655 291.237 345.655C291.648 345.655 292.066 345.55 292.492 345.339C292.922 345.129 293.282 344.806 293.572 344.371C293.866 343.937 294.014 343.383 294.014 342.71ZM302.989 336.342V337.745H297.407V336.342H302.989ZM299.034 333.762H300.689V344.028C300.689 344.495 300.757 344.846 300.892 345.08C301.032 345.309 301.21 345.463 301.425 345.543C301.645 345.617 301.876 345.655 302.119 345.655C302.302 345.655 302.451 345.645 302.568 345.627C302.685 345.603 302.779 345.585 302.849 345.571L303.185 347.057C303.073 347.099 302.916 347.141 302.715 347.183C302.514 347.23 302.26 347.254 301.951 347.254C301.484 347.254 301.025 347.153 300.577 346.952C300.133 346.751 299.763 346.445 299.469 346.033C299.179 345.622 299.034 345.103 299.034 344.477V333.762ZM314.926 336.342V337.745H309.345V336.342H314.926ZM310.972 333.762H312.626V344.028C312.626 344.495 312.694 344.846 312.83 345.08C312.97 345.309 313.148 345.463 313.363 345.543C313.582 345.617 313.814 345.655 314.057 345.655C314.239 345.655 314.389 345.645 314.506 345.627C314.623 345.603 314.716 345.585 314.786 345.571L315.123 347.057C315.011 347.099 314.854 347.141 314.653 347.183C314.452 347.23 314.197 347.254 313.889 347.254C313.421 347.254 312.963 347.153 312.514 346.952C312.07 346.751 311.701 346.445 311.406 346.033C311.116 345.622 310.972 345.103 310.972 344.477V333.762ZM317.021 347.113V336.342H318.676V347.113H317.021ZM317.862 334.547C317.54 334.547 317.262 334.437 317.028 334.218C316.799 333.998 316.684 333.734 316.684 333.425C316.684 333.117 316.799 332.852 317.028 332.633C317.262 332.413 317.54 332.303 317.862 332.303C318.185 332.303 318.461 332.413 318.69 332.633C318.924 332.852 319.041 333.117 319.041 333.425C319.041 333.734 318.924 333.998 318.69 334.218C318.461 334.437 318.185 334.547 317.862 334.547ZM321.312 347.113V336.342H322.911V338.025H323.051C323.275 337.45 323.638 337.004 324.138 336.686C324.638 336.363 325.239 336.202 325.94 336.202C326.651 336.202 327.242 336.363 327.714 336.686C328.191 337.004 328.563 337.45 328.829 338.025H328.941C329.217 337.469 329.631 337.027 330.183 336.7C330.734 336.368 331.396 336.202 332.167 336.202C333.13 336.202 333.918 336.504 334.53 337.107C335.143 337.705 335.449 338.638 335.449 339.905V347.113H333.794V339.905C333.794 339.11 333.577 338.542 333.142 338.201C332.707 337.859 332.195 337.689 331.606 337.689C330.849 337.689 330.262 337.918 329.846 338.376C329.43 338.829 329.222 339.404 329.222 340.101V347.113H327.539V339.736C327.539 339.124 327.34 338.631 326.943 338.257C326.546 337.878 326.034 337.689 325.407 337.689C324.977 337.689 324.575 337.803 324.201 338.032C323.832 338.261 323.533 338.579 323.304 338.986C323.079 339.388 322.967 339.853 322.967 340.381V347.113H321.312ZM342.596 347.338C341.558 347.338 340.663 347.109 339.91 346.65C339.162 346.188 338.585 345.543 338.178 344.715C337.776 343.883 337.575 342.915 337.575 341.812C337.575 340.709 337.776 339.736 338.178 338.895C338.585 338.049 339.15 337.389 339.875 336.917C340.604 336.44 341.455 336.202 342.428 336.202C342.989 336.202 343.543 336.296 344.089 336.483C344.636 336.67 345.134 336.973 345.583 337.394C346.032 337.81 346.39 338.362 346.656 339.049C346.922 339.736 347.056 340.582 347.056 341.588V342.289H338.753V340.858H345.373C345.373 340.251 345.251 339.708 345.008 339.231C344.77 338.755 344.428 338.378 343.984 338.102C343.545 337.827 343.026 337.689 342.428 337.689C341.768 337.689 341.198 337.852 340.717 338.18C340.24 338.502 339.873 338.923 339.616 339.442C339.358 339.961 339.23 340.517 339.23 341.111V342.064C339.23 342.878 339.37 343.567 339.651 344.133C339.936 344.694 340.331 345.122 340.836 345.416C341.341 345.706 341.927 345.851 342.596 345.851C343.031 345.851 343.423 345.79 343.774 345.669C344.129 345.543 344.435 345.356 344.693 345.108C344.95 344.855 345.148 344.542 345.289 344.168L346.887 344.617C346.719 345.159 346.436 345.636 346.039 346.047C345.642 346.454 345.151 346.772 344.566 347.001C343.982 347.225 343.325 347.338 342.596 347.338Z" fill="#757575"/>
<path d="M200.088 92.8967H203.445V113.986H207.789V86.3408H204.867C204.195 88.197 203.445 89.8162 200.088 89.8162V92.8967ZM216.26 92.6992C216.26 90.7246 217.129 89.9742 218.511 89.9742C219.894 89.9742 220.762 90.7246 220.762 92.6992V107.628C220.762 109.603 219.894 110.353 218.511 110.353C217.129 110.353 216.26 109.603 216.26 107.628V92.6992ZM211.916 107.351C211.916 111.775 214.246 114.302 218.511 114.302C222.777 114.302 225.107 111.775 225.107 107.351V92.9757C225.107 88.5524 222.777 86.0248 218.511 86.0248C214.246 86.0248 211.916 88.5524 211.916 92.9757V107.351ZM231.129 92.6992C231.129 90.7246 231.998 89.9742 233.38 89.9742C234.762 89.9742 235.631 90.7246 235.631 92.6992V107.628C235.631 109.603 234.762 110.353 233.38 110.353C231.998 110.353 231.129 109.603 231.129 107.628V92.6992ZM226.785 107.351C226.785 111.775 229.115 114.302 233.38 114.302C237.645 114.302 239.975 111.775 239.975 107.351V92.9757C239.975 88.5524 237.645 86.0248 233.38 86.0248C229.115 86.0248 226.785 88.5524 226.785 92.9757V107.351ZM251.922 113.986H256.384L250.342 98.6628L256.384 86.3408H252.04L246.432 98.3073H246.353V86.3408H242.009V113.986H246.353V105.495L247.696 102.968L251.922 113.986ZM263.575 86.3408H257.532V113.986H261.324V94.437H261.403L264.562 113.986H268.669L271.592 94.1605H271.671V113.986H275.778V86.3408H269.736L266.813 105.969H266.734L263.575 86.3408ZM296.998 113.986C296.563 112.959 296.524 111.972 296.524 110.629V106.364C296.524 103.481 295.813 101.427 293.641 100.519V100.44C295.576 99.5316 296.484 97.7149 296.484 94.8714V92.6992C296.484 88.4339 294.549 86.3408 290.047 86.3408H283.491V113.986H287.835V102.731H289.336C291.311 102.731 292.18 103.678 292.18 106.246V110.59C292.18 112.841 292.338 113.275 292.575 113.986H296.998ZM289.928 90.2901C291.469 90.2901 292.14 91.159 292.14 93.1337V95.8587C292.14 98.0704 291.153 98.7813 289.534 98.7813H287.835V90.2901H289.928ZM298.394 86.3408V107.391C298.394 111.814 300.605 114.342 304.871 114.342C309.136 114.342 311.348 111.814 311.348 107.391V86.3408H307.24V107.667C307.24 109.642 306.371 110.353 304.989 110.353C303.607 110.353 302.738 109.642 302.738 107.667V86.3408H298.394ZM322.818 113.986H327.281V86.3408H323.41V102.889H323.331L318.948 86.3408H313.498V113.986H317.407V93.963H317.486L322.818 113.986ZM331.26 113.986L330.115 117.936H331.892L333.788 113.552V109.8H329.601V113.986H331.26ZM348.038 86.3408H341.482V113.986H348.314C352.659 113.986 354.91 111.696 354.91 107.43V105.179C354.91 102.257 354.001 100.203 351.671 99.2947V99.2157C353.606 98.3073 354.475 96.5301 354.475 93.6866V92.6992C354.475 88.4339 352.54 86.3408 348.038 86.3408ZM347.761 101.546C349.736 101.546 350.565 102.336 350.565 104.903V107.312C350.565 109.366 349.776 110.037 348.314 110.037H345.826V101.546H347.761ZM347.919 90.2901C349.46 90.2901 350.131 91.159 350.131 93.1337V94.6739C350.131 96.8856 349.144 97.5965 347.524 97.5965H345.826V90.2901H347.919ZM361.081 90.2901H368.584V86.3408H356.736V113.986H368.584V110.037H361.081V101.941H367.044V97.9914H361.081V90.2901ZM375.829 113.986H387.322V110.037H380.173V86.3408H375.829V113.986ZM388.422 113.986H392.767V86.3408H388.422V113.986ZM405.066 113.986H409.529L403.486 98.6628L409.529 86.3408H405.185L399.576 98.3073H399.497V86.3408H395.153V113.986H399.497V105.495L400.84 102.968L405.066 113.986ZM415.06 90.2901H422.564V86.3408H410.716V113.986H422.564V110.037H415.06V101.941H421.024V97.9914H415.06V90.2901ZM429.256 92.9757C429.256 96.1352 430.401 98.4258 434.035 101.625C436.878 104.113 437.747 105.614 437.747 107.628C437.747 109.603 436.878 110.313 435.496 110.313C434.114 110.313 433.245 109.603 433.245 107.628V105.653H429.137V107.351C429.137 111.775 431.349 114.302 435.614 114.302C439.88 114.302 442.091 111.775 442.091 107.351C442.091 104.192 440.946 101.901 437.313 98.7023C434.469 96.2142 433.6 94.7134 433.6 92.6992C433.6 90.7246 434.39 89.9742 435.772 89.9742C437.155 89.9742 437.945 90.7246 437.945 92.6992V93.8446H442.052V92.9757C442.052 88.5524 439.88 86.0248 435.654 86.0248C431.428 86.0248 429.256 88.5524 429.256 92.9757ZM453.427 86.3408H447.069L442.645 113.986H446.634L447.384 108.971H452.716L453.466 113.986H457.85L453.427 86.3408ZM449.991 91.238H450.07L452.124 105.219H447.937L449.991 91.238ZM459.084 113.986H463.428V86.3408H459.084V113.986ZM464.551 90.2901H469.092V113.986H473.437V90.2901H477.978V86.3408H464.551V90.2901ZM487.234 86.3408H480.876L476.452 113.986H480.441L481.192 108.971H486.523L487.274 113.986H491.657L487.234 86.3408ZM483.798 91.238H483.877L485.931 105.219H481.745L483.798 91.238ZM498.894 86.3408H492.851V113.986H496.643V94.437H496.722L499.881 113.986H503.988L506.911 94.1605H506.99V113.986H511.097V86.3408H505.055L502.132 105.969H502.053L498.894 86.3408ZM523.104 86.3408H516.746L512.322 113.986H516.311L517.061 108.971H522.393L523.143 113.986H527.527L523.104 86.3408ZM519.668 91.238H519.747L521.801 105.219H517.614L519.668 91.238Z" fill="white"/>
<path d="M211.334 54.9107H209.305C209.185 54.3271 208.975 53.8144 208.675 53.3727C208.381 52.9309 208.021 52.56 207.595 52.26C207.175 51.9546 206.709 51.7255 206.196 51.5728C205.684 51.4201 205.149 51.3437 204.593 51.3437C203.578 51.3437 202.659 51.6001 201.836 52.1128C201.018 52.6254 200.366 53.3808 199.881 54.3789C199.401 55.377 199.161 56.6015 199.161 58.0522C199.161 59.503 199.401 60.7275 199.881 61.7256C200.366 62.7236 201.018 63.479 201.836 63.9917C202.659 64.5044 203.578 64.7607 204.593 64.7607C205.149 64.7607 205.684 64.6844 206.196 64.5317C206.709 64.379 207.175 64.1526 207.595 63.8526C208.021 63.5472 208.381 63.1736 208.675 62.7318C208.975 62.2846 209.185 61.7719 209.305 61.1938H211.334C211.181 62.0501 210.903 62.8164 210.5 63.4927C210.096 64.169 209.594 64.7444 208.994 65.2189C208.394 65.6879 207.721 66.0452 206.974 66.2906C206.232 66.536 205.438 66.6588 204.593 66.6588C203.164 66.6588 201.893 66.3097 200.78 65.6116C199.668 64.9135 198.792 63.9208 198.154 62.6337C197.516 61.3465 197.197 59.8194 197.197 58.0522C197.197 56.2851 197.516 54.758 198.154 53.4708C198.792 52.1837 199.668 51.191 200.78 50.4929C201.893 49.7948 203.164 49.4457 204.593 49.4457C205.438 49.4457 206.232 49.5684 206.974 49.8139C207.721 50.0593 208.394 50.4193 208.994 50.8938C209.594 51.3628 210.096 51.9355 210.5 52.6118C210.903 53.2827 211.181 54.049 211.334 54.9107ZM217.588 66.7242C216.792 66.7242 216.069 66.5742 215.42 66.2742C214.771 65.9688 214.256 65.5298 213.874 64.9571C213.492 64.379 213.301 63.6808 213.301 62.8627C213.301 62.1428 213.443 61.5592 213.727 61.112C214.01 60.6593 214.389 60.3048 214.864 60.0484C215.338 59.7921 215.862 59.6012 216.434 59.4758C217.013 59.3449 217.593 59.2412 218.177 59.1649C218.941 59.0667 219.56 58.9931 220.034 58.944C220.514 58.8894 220.863 58.7994 221.081 58.674C221.305 58.5486 221.417 58.3304 221.417 58.0195V57.9541C221.417 57.1469 221.196 56.5196 220.754 56.0724C220.318 55.6252 219.655 55.4016 218.766 55.4016C217.844 55.4016 217.122 55.6034 216.598 56.007C216.074 56.4106 215.706 56.8414 215.494 57.2996L213.661 56.6451C213.988 55.8815 214.425 55.287 214.97 54.8616C215.521 54.4307 216.121 54.1308 216.77 53.9617C217.424 53.7872 218.068 53.6999 218.701 53.6999C219.104 53.6999 219.568 53.749 220.091 53.8472C220.62 53.9399 221.13 54.1335 221.621 54.428C222.118 54.7225 222.529 55.167 222.857 55.7615C223.184 56.356 223.347 57.1523 223.347 58.1504V66.4297H221.417V64.728H221.319C221.188 65.0007 220.97 65.2925 220.664 65.6034C220.359 65.9143 219.952 66.1788 219.445 66.397C218.938 66.6151 218.319 66.7242 217.588 66.7242ZM217.883 64.9898C218.646 64.9898 219.29 64.8398 219.813 64.5399C220.342 64.2399 220.74 63.8526 221.008 63.3781C221.28 62.9036 221.417 62.4046 221.417 61.881V60.1139C221.335 60.2121 221.155 60.302 220.877 60.3839C220.604 60.4602 220.288 60.5284 219.928 60.5884C219.573 60.6429 219.227 60.692 218.889 60.7356C218.556 60.7738 218.286 60.8065 218.079 60.8338C217.577 60.8993 217.108 61.0056 216.672 61.1529C216.241 61.2947 215.892 61.5101 215.625 61.7992C215.363 62.0828 215.232 62.47 215.232 62.9609C215.232 63.6318 215.48 64.139 215.976 64.4826C216.478 64.8207 217.113 64.9898 217.883 64.9898ZM226.411 66.4297V53.8635H228.276V55.7615H228.407C228.636 55.1398 229.051 54.6353 229.65 54.248C230.25 53.8608 230.927 53.6672 231.679 53.6672C231.821 53.6672 231.998 53.6699 232.211 53.6754C232.424 53.6808 232.585 53.689 232.694 53.6999V55.6634C232.628 55.647 232.478 55.6225 232.244 55.5897C232.015 55.5516 231.772 55.5325 231.516 55.5325C230.905 55.5325 230.359 55.6606 229.88 55.917C229.405 56.1679 229.029 56.5169 228.751 56.9642C228.478 57.4059 228.341 57.9104 228.341 58.4777V66.4297H226.411ZM238.884 66.6915C237.837 66.6915 236.913 66.427 236.111 65.8979C235.309 65.3634 234.682 64.6108 234.229 63.6399C233.777 62.6637 233.55 61.5101 233.55 60.1793C233.55 58.8594 233.777 57.7141 234.229 56.7433C234.682 55.7724 235.312 55.0225 236.119 54.4935C236.926 53.9644 237.859 53.6999 238.917 53.6999C239.735 53.6999 240.381 53.8363 240.856 54.109C241.336 54.3762 241.701 54.6816 241.952 55.0252C242.209 55.3634 242.408 55.6415 242.549 55.8597H242.713V49.6748H244.644V66.4297H242.778V64.4989H242.549C242.408 64.728 242.206 65.0171 241.944 65.3661C241.682 65.7098 241.309 66.0179 240.823 66.2906C240.338 66.5579 239.691 66.6915 238.884 66.6915ZM239.146 64.9571C239.921 64.9571 240.575 64.7553 241.11 64.3517C241.644 63.9426 242.05 63.3781 242.329 62.6582C242.607 61.9328 242.746 61.0956 242.746 60.1466C242.746 59.2085 242.609 58.3877 242.337 57.6841C242.064 56.9751 241.66 56.4242 241.126 56.0315C240.591 55.6334 239.931 55.4343 239.146 55.4343C238.328 55.4343 237.646 55.6443 237.101 56.0642C236.561 56.4787 236.155 57.0432 235.882 57.7577C235.615 58.4668 235.481 59.263 235.481 60.1466C235.481 61.0411 235.617 61.8537 235.89 62.5846C236.168 63.31 236.577 63.8881 237.117 64.319C237.663 64.7444 238.339 64.9571 239.146 64.9571ZM247.987 66.4297V53.8635H249.918V66.4297H247.987ZM248.969 51.7692C248.593 51.7692 248.268 51.641 247.995 51.3846C247.728 51.1283 247.595 50.8202 247.595 50.4602C247.595 50.1002 247.728 49.7921 247.995 49.5357C248.268 49.2794 248.593 49.1512 248.969 49.1512C249.345 49.1512 249.667 49.2794 249.934 49.5357C250.207 49.7921 250.343 50.1002 250.343 50.4602C250.343 50.8202 250.207 51.1283 249.934 51.3846C249.667 51.641 249.345 51.7692 248.969 51.7692ZM258.099 66.6915C256.964 66.6915 255.969 66.4215 255.112 65.8816C254.262 65.3416 253.596 64.5862 253.116 63.6154C252.642 62.6446 252.404 61.5101 252.404 60.2121C252.404 58.9031 252.642 57.7604 253.116 56.7842C253.596 55.8079 254.262 55.0498 255.112 54.5098C255.969 53.9699 256.964 53.6999 258.099 53.6999C259.233 53.6999 260.226 53.9699 261.076 54.5098C261.933 55.0498 262.598 55.8079 263.073 56.7842C263.553 57.7604 263.793 58.9031 263.793 60.2121C263.793 61.5101 263.553 62.6446 263.073 63.6154C262.598 64.5862 261.933 65.3416 261.076 65.8816C260.226 66.4215 259.233 66.6915 258.099 66.6915ZM258.099 64.9571C258.96 64.9571 259.669 64.7362 260.226 64.2944C260.782 63.8526 261.194 63.2718 261.461 62.5518C261.728 61.8319 261.862 61.052 261.862 60.2121C261.862 59.3721 261.728 58.5895 261.461 57.8641C261.194 57.1387 260.782 56.5524 260.226 56.1051C259.669 55.6579 258.96 55.4343 258.099 55.4343C257.237 55.4343 256.528 55.6579 255.971 56.1051C255.415 56.5524 255.003 57.1387 254.736 57.8641C254.469 58.5895 254.335 59.3721 254.335 60.2121C254.335 61.052 254.469 61.8319 254.736 62.5518C255.003 63.2718 255.415 63.8526 255.971 64.2944C256.528 64.7362 257.237 64.9571 258.099 64.9571Z" fill="#757575"/>
<path d="M198.656 144.512L202.653 156.208H202.814L206.811 144.512H209.153L203.985 158.873H201.482L196.314 144.512H198.656ZM210.664 158.873V148.102H212.761V158.873H210.664ZM211.723 146.44C211.358 146.44 211.045 146.319 210.783 146.075C210.526 145.828 210.397 145.533 210.397 145.192C210.397 144.846 210.526 144.551 210.783 144.308C211.045 144.061 211.358 143.937 211.723 143.937C212.087 143.937 212.398 144.061 212.655 144.308C212.917 144.551 213.048 144.846 213.048 145.192C213.048 145.533 212.917 145.828 212.655 146.075C212.398 146.319 212.087 146.44 211.723 146.44ZM219.829 159.09C218.767 159.09 217.853 158.864 217.087 158.41C216.325 157.952 215.736 157.309 215.32 156.482C214.908 155.65 214.703 154.675 214.703 153.558C214.703 152.454 214.908 151.482 215.32 150.641C215.736 149.799 216.315 149.142 217.059 148.67C217.807 148.198 218.681 147.962 219.681 147.962C220.289 147.962 220.878 148.062 221.448 148.263C222.019 148.464 222.531 148.78 222.984 149.21C223.438 149.64 223.795 150.199 224.057 150.886C224.319 151.568 224.45 152.398 224.45 153.375V154.119H215.888V152.548H222.395C222.395 151.996 222.283 151.508 222.059 151.082C221.834 150.652 221.519 150.313 221.112 150.066C220.71 149.818 220.238 149.694 219.695 149.694C219.106 149.694 218.592 149.839 218.153 150.129C217.718 150.414 217.381 150.788 217.143 151.251C216.909 151.709 216.792 152.207 216.792 152.744V153.971C216.792 154.691 216.918 155.304 217.171 155.809C217.428 156.314 217.786 156.699 218.244 156.966C218.702 157.227 219.237 157.358 219.85 157.358C220.247 157.358 220.609 157.302 220.937 157.19C221.264 157.073 221.547 156.9 221.785 156.671C222.023 156.442 222.206 156.159 222.332 155.823L224.317 156.18C224.158 156.765 223.872 157.277 223.461 157.716C223.054 158.151 222.542 158.49 221.925 158.733C221.313 158.971 220.614 159.09 219.829 159.09ZM228.697 158.873L225.527 148.102H227.694L229.805 156.012H229.91L232.028 148.102H234.195L236.298 155.977H236.404L238.5 148.102H240.667L237.505 158.873H235.366L233.178 151.096H233.017L230.829 158.873H228.697ZM255.164 150.732L253.264 151.068C253.184 150.825 253.058 150.594 252.885 150.374C252.717 150.154 252.488 149.974 252.198 149.834C251.908 149.694 251.546 149.624 251.111 149.624C250.517 149.624 250.022 149.757 249.624 150.023C249.227 150.285 249.028 150.624 249.028 151.04C249.028 151.4 249.162 151.69 249.428 151.91C249.695 152.129 250.125 152.309 250.718 152.45L252.429 152.842C253.42 153.071 254.159 153.424 254.645 153.901C255.132 154.378 255.375 154.998 255.375 155.76C255.375 156.405 255.188 156.98 254.814 157.485C254.444 157.985 253.928 158.378 253.264 158.663C252.605 158.948 251.84 159.09 250.971 159.09C249.765 159.09 248.781 158.833 248.019 158.319C247.257 157.8 246.789 157.064 246.616 156.11L248.643 155.802C248.769 156.33 249.028 156.73 249.421 157.001C249.814 157.267 250.326 157.4 250.957 157.4C251.644 157.4 252.193 157.258 252.605 156.973C253.016 156.683 253.222 156.33 253.222 155.914C253.222 155.577 253.096 155.294 252.843 155.065C252.595 154.836 252.214 154.663 251.7 154.546L249.877 154.147C248.872 153.918 248.128 153.553 247.647 153.053C247.17 152.553 246.932 151.919 246.932 151.152C246.932 150.517 247.109 149.96 247.465 149.483C247.82 149.007 248.311 148.635 248.937 148.369C249.564 148.097 250.281 147.962 251.09 147.962C252.254 147.962 253.17 148.214 253.839 148.719C254.507 149.219 254.949 149.89 255.164 150.732ZM262.313 148.102V149.785H256.429V148.102H262.313ZM258.007 145.521H260.104V155.71C260.104 156.117 260.165 156.423 260.286 156.629C260.408 156.83 260.564 156.968 260.756 157.043C260.952 157.113 261.165 157.148 261.394 157.148C261.563 157.148 261.71 157.136 261.836 157.113C261.962 157.09 262.06 157.071 262.131 157.057L262.509 158.789C262.388 158.836 262.215 158.882 261.99 158.929C261.766 158.981 261.485 159.009 261.149 159.013C260.597 159.023 260.083 158.924 259.606 158.719C259.129 158.513 258.744 158.195 258.449 157.765C258.155 157.335 258.007 156.795 258.007 156.145V145.521ZM267.372 159.111C266.689 159.111 266.072 158.985 265.521 158.733C264.969 158.476 264.532 158.104 264.209 157.618C263.891 157.132 263.732 156.536 263.732 155.83C263.732 155.222 263.849 154.722 264.083 154.329C264.317 153.936 264.632 153.625 265.03 153.396C265.427 153.167 265.871 152.994 266.362 152.877C266.853 152.761 267.353 152.672 267.863 152.611C268.508 152.536 269.031 152.475 269.433 152.429C269.835 152.377 270.128 152.295 270.31 152.183C270.492 152.071 270.583 151.889 270.583 151.636V151.587C270.583 150.975 270.41 150.5 270.065 150.164C269.723 149.827 269.214 149.659 268.536 149.659C267.83 149.659 267.274 149.815 266.867 150.129C266.465 150.437 266.187 150.781 266.032 151.159L264.062 150.711C264.296 150.056 264.637 149.528 265.086 149.126C265.539 148.719 266.06 148.425 266.65 148.242C267.239 148.055 267.858 147.962 268.508 147.962C268.938 147.962 269.394 148.013 269.875 148.116C270.361 148.214 270.815 148.397 271.236 148.663C271.661 148.93 272.009 149.311 272.28 149.806C272.552 150.297 272.687 150.935 272.687 151.72V158.873H270.64V157.4H270.555C270.42 157.672 270.216 157.938 269.945 158.2C269.674 158.462 269.326 158.679 268.9 158.852C268.475 159.025 267.966 159.111 267.372 159.111ZM267.828 157.428C268.407 157.428 268.903 157.314 269.314 157.085C269.73 156.856 270.046 156.557 270.261 156.187C270.481 155.813 270.59 155.414 270.59 154.988V153.6C270.516 153.675 270.371 153.745 270.156 153.81C269.945 153.871 269.705 153.925 269.433 153.971C269.162 154.013 268.898 154.053 268.641 154.091C268.384 154.123 268.169 154.151 267.996 154.175C267.589 154.226 267.218 154.313 266.881 154.434C266.549 154.556 266.283 154.731 266.082 154.96C265.885 155.185 265.787 155.484 265.787 155.858C265.787 156.377 265.979 156.769 266.362 157.036C266.745 157.298 267.234 157.428 267.828 157.428ZM280.113 148.102V149.785H274.229V148.102H280.113ZM275.807 145.521H277.904V155.71C277.904 156.117 277.965 156.423 278.086 156.629C278.208 156.83 278.364 156.968 278.556 157.043C278.752 157.113 278.965 157.148 279.194 157.148C279.362 157.148 279.51 157.136 279.636 157.113C279.762 157.09 279.86 157.071 279.93 157.057L280.309 158.789C280.188 158.836 280.015 158.882 279.79 158.929C279.566 158.981 279.285 159.009 278.949 159.013C278.397 159.023 277.883 158.924 277.406 158.719C276.929 158.513 276.543 158.195 276.249 157.765C275.954 157.335 275.807 156.795 275.807 156.145V145.521ZM282.037 158.873V148.102H284.134V158.873H282.037ZM283.096 146.44C282.731 146.44 282.418 146.319 282.156 146.075C281.899 145.828 281.771 145.533 281.771 145.192C281.771 144.846 281.899 144.551 282.156 144.308C282.418 144.061 282.731 143.937 283.096 143.937C283.461 143.937 283.772 144.061 284.029 144.308C284.29 144.551 284.421 144.846 284.421 145.192C284.421 145.533 284.29 145.828 284.029 146.075C283.772 146.319 283.461 146.44 283.096 146.44ZM294.631 150.732L292.731 151.068C292.651 150.825 292.525 150.594 292.352 150.374C292.184 150.154 291.955 149.974 291.665 149.834C291.375 149.694 291.013 149.624 290.578 149.624C289.984 149.624 289.488 149.757 289.091 150.023C288.694 150.285 288.495 150.624 288.495 151.04C288.495 151.4 288.628 151.69 288.895 151.91C289.161 152.129 289.591 152.309 290.185 152.45L291.896 152.842C292.887 153.071 293.626 153.424 294.112 153.901C294.598 154.378 294.841 154.998 294.841 155.76C294.841 156.405 294.654 156.98 294.28 157.485C293.911 157.985 293.394 158.378 292.731 158.663C292.071 158.948 291.307 159.09 290.438 159.09C289.231 159.09 288.247 158.833 287.485 158.319C286.723 157.8 286.256 157.064 286.083 156.11L288.109 155.802C288.236 156.33 288.495 156.73 288.888 157.001C289.28 157.267 289.792 157.4 290.423 157.4C291.111 157.4 291.66 157.258 292.071 156.973C292.483 156.683 292.688 156.33 292.688 155.914C292.688 155.577 292.562 155.294 292.31 155.065C292.062 154.836 291.681 154.663 291.167 154.546L289.344 154.147C288.338 153.918 287.595 153.553 287.114 153.053C286.637 152.553 286.398 151.919 286.398 151.152C286.398 150.517 286.576 149.96 286.931 149.483C287.287 149.007 287.777 148.635 288.404 148.369C289.03 148.097 289.748 147.962 290.557 147.962C291.721 147.962 292.637 148.214 293.306 148.719C293.974 149.219 294.416 149.89 294.631 150.732ZM301.78 148.102V149.785H295.896V148.102H301.78ZM297.474 145.521H299.571V155.71C299.571 156.117 299.631 156.423 299.753 156.629C299.874 156.83 300.031 156.968 300.223 157.043C300.419 157.113 300.632 157.148 300.861 157.148C301.029 157.148 301.176 157.136 301.303 157.113C301.429 157.09 301.527 157.071 301.597 157.057L301.976 158.789C301.854 158.836 301.681 158.882 301.457 158.929C301.233 158.981 300.952 159.009 300.615 159.013C300.064 159.023 299.55 158.924 299.073 158.719C298.596 158.513 298.21 158.195 297.916 157.765C297.621 157.335 297.474 156.795 297.474 156.145V145.521ZM303.704 158.873V148.102H305.801V158.873H303.704ZM304.763 146.44C304.398 146.44 304.085 146.319 303.823 146.075C303.566 145.828 303.437 145.533 303.437 145.192C303.437 144.846 303.566 144.551 303.823 144.308C304.085 144.061 304.398 143.937 304.763 143.937C305.127 143.937 305.438 144.061 305.695 144.308C305.957 144.551 306.088 144.846 306.088 145.192C306.088 145.533 305.957 145.828 305.695 146.075C305.438 146.319 305.127 146.44 304.763 146.44ZM312.763 159.09C311.721 159.09 310.823 158.854 310.071 158.382C309.323 157.905 308.748 157.249 308.346 156.412C307.944 155.575 307.743 154.617 307.743 153.537C307.743 152.443 307.948 151.477 308.36 150.641C308.771 149.799 309.351 149.142 310.099 148.67C310.847 148.198 311.728 147.962 312.742 147.962C313.56 147.962 314.29 148.114 314.93 148.418C315.571 148.717 316.087 149.138 316.48 149.68C316.877 150.222 317.113 150.856 317.188 151.58H315.148C315.035 151.075 314.778 150.641 314.376 150.276C313.979 149.911 313.446 149.729 312.777 149.729C312.193 149.729 311.681 149.883 311.242 150.192C310.807 150.496 310.468 150.93 310.225 151.496C309.982 152.057 309.86 152.721 309.86 153.488C309.86 154.273 309.98 154.951 310.218 155.521C310.456 156.091 310.793 156.533 311.228 156.846C311.667 157.16 312.184 157.316 312.777 157.316C313.175 157.316 313.535 157.244 313.857 157.099C314.185 156.949 314.458 156.737 314.678 156.461C314.902 156.185 315.059 155.853 315.148 155.465H317.188C317.113 156.162 316.887 156.783 316.508 157.33C316.129 157.877 315.622 158.307 314.986 158.621C314.355 158.934 313.614 159.09 312.763 159.09ZM327.107 150.732L325.206 151.068C325.127 150.825 325.001 150.594 324.828 150.374C324.659 150.154 324.43 149.974 324.14 149.834C323.851 149.694 323.488 149.624 323.054 149.624C322.46 149.624 321.964 149.757 321.567 150.023C321.17 150.285 320.971 150.624 320.971 151.04C320.971 151.4 321.104 151.69 321.371 151.91C321.637 152.129 322.067 152.309 322.661 152.45L324.372 152.842C325.363 153.071 326.102 153.424 326.588 153.901C327.074 154.378 327.317 154.998 327.317 155.76C327.317 156.405 327.13 156.98 326.756 157.485C326.387 157.985 325.87 158.378 325.206 158.663C324.547 158.948 323.783 159.09 322.913 159.09C321.707 159.09 320.723 158.833 319.961 158.319C319.199 157.8 318.732 157.064 318.559 156.11L320.585 155.802C320.711 156.33 320.971 156.73 321.364 157.001C321.756 157.267 322.268 157.4 322.899 157.4C323.587 157.4 324.136 157.258 324.547 156.973C324.959 156.683 325.164 156.33 325.164 155.914C325.164 155.577 325.038 155.294 324.786 155.065C324.538 154.836 324.157 154.663 323.643 154.546L321.819 154.147C320.814 153.918 320.071 153.553 319.589 153.053C319.113 152.553 318.874 151.919 318.874 151.152C318.874 150.517 319.052 149.96 319.407 149.483C319.762 149.007 320.253 148.635 320.88 148.369C321.506 148.097 322.224 147.962 323.033 147.962C324.197 147.962 325.113 148.214 325.781 148.719C326.45 149.219 326.892 149.89 327.107 150.732Z" fill="#757575"/>
<defs>
<clipPath id="clip0_1309_3025">
<rect width="130" height="130" fill="white" transform="translate(39.4937 39.4941)"/>
</clipPath>
</defs>
</svg>
